<?xml version="1.0" encoding="UTF-8"?><svg id="Layer_1" xmlns="http://www.w3.org/2000/svg" viewBox="0 0 800 800"><defs><style>.cls-1{fill:#f8dec7;}.cls-2{fill:#efd2ad;}.cls-3{fill:#dc83a4;}.cls-4{fill:#f1c2da;}.cls-4,.cls-5,.cls-6,.cls-7,.cls-8,.cls-9,.cls-10{stroke-miterlimit:10;}.cls-4,.cls-9{font-family:KawaiiBubble-Regular, 'Kawaii Bubble';font-size:107.64px;stroke-width:10px;}.cls-4,.cls-9,.cls-10{stroke:#dc83a4;}.cls-5{stroke-width:.75px;}.cls-5,.cls-6,.cls-7,.cls-8{stroke:#f8dec7;}.cls-5,.cls-6,.cls-7,.cls-8,.cls-10{fill:none;}.cls-6{stroke-width:2px;}.cls-7{stroke-width:4px;}.cls-9{fill:#f1cad6;}.cls-10{stroke-width:9px;}</style></defs><text class="cls-4" transform="translate(193.03 413.68)"><tspan x="0" y="0">s</tspan></text><path class="cls-1" d="m272.46,374.74c-.1-.82-.47-1.55-1.2-1.99s-1.94-.55-2.44.34c-.58,1.02.44,1.86,1.25,2.27.68.34,1.43.6,2.2.5.9-.12,1.62-.76,1.76-1.67.12-.78-.17-1.58-.76-2.11s-1.56-1.08-2.34-.88c-1.04.26-1.21,1.35-.88,2.23.57,1.55,1.72,2.68,3.24,3.3.65.26,1.49-.41,1.42-1.08-.06-.62-.33-1.06-.81-1.45-.39-.32-.79-.62-1.23-.87-.8-.46-1.69-.82-2.59-1-.49-.1-1.03-.21-1.52-.07-.6.17-1.03.69-1.17,1.28-.25,1.09.54,2.15,1.57,2.43,1.11.3,2.21-.38,2.8-1.27.53-.81.71-1.9.77-2.84s-.17-2.06-.95-2.73c-.92-.79-2.16-.64-2.91.29s-.93,2.02-1.03,3.15.16,2.1,1.07,2.78c.29.22.84.21,1.14,0,.85-.59,1.31-1.45,1.42-2.47.1-.91-.06-1.98-.46-2.81-.43-.9-1.43-1.52-2.44-1.27-.94.23-1.49,1.27-1.74,2.13-.28.98.03,2.1.97,2.6,1.05.56,2.2-.13,2.72-1.08.46-.85.53-1.88.07-2.75-.42-.79-1.29-1.32-2.18-1.36s-1.81.5-2.23,1.32c-.45.88-.41,1.89.07,2.75s1.29,1.39,2.17,1.72,2.09.53,2.85-.18c1.61-1.5-.11-4.09-1.97-4.25-2.25-.18-2.56,2.84-2.01,4.39.34.96.95,1.87,1.91,2.29s2.18.21,2.84-.67c.6-.81.8-2.01.94-2.99s.19-2.1-.43-2.97c-.67-.93-1.99-.57-2.1.57-.18,1.79.58,3.68,1.92,4.88.71.64,1.78,1.34,2.75.78.62-.36.87-1.08.66-1.75-.09-.29-.28-.56-.51-.76-.12-.11-.28-.22-.42-.31-.18-.12.03.06-.12-.11-.41-.45-1.18-.42-1.59,0-.45.45-.41,1.14,0,1.59.14.15.31.28.48.4.03.02.28.14.14.09-.12-.75.06-1.15.55-1.21.15.02.16.02.03-.01l.1.04c-.06-.03-.12-.07-.17-.1-.06-.04-.13-.08-.19-.13.08.06.06.05-.04-.04-.08-.08-.17-.15-.25-.23-.09-.09-.18-.19-.27-.29-.04-.04-.07-.09-.11-.13.06.08.05.06-.03-.05-.32-.51-.46-.75-.6-1.27-.03-.11-.05-.22-.08-.33-.02-.14-.03-.15-.01-.04,0-.08-.02-.15-.02-.23-.02-.27,0-.53.02-.79l-2.1.57c.07.09.14.19.18.29-.08-.19.03.17.03.17.06.23.01.1,0,.05,0,.12.01.24,0,.36-.01.5-.1.91-.23,1.45-.06.24-.12.47-.2.71-.04.13-.08.27-.13.39.06-.14-.02.04-.03.05.11-.16-.14.19.03-.01l.08-.03c-.07.02-.13.04-.2.05.24-.04,0,0-.01-.02.12.02.12.02-.01-.01-.12-.04-.13-.04-.03-.01-.02,0-.28-.21-.14-.08-.06-.05-.11-.11-.16-.16-.21-.21.05.13-.1-.13-.06-.11-.13-.21-.18-.32-.15-.3-.23-.66-.23-1.03,0-.3,0-.34.07-.59.02-.07.04-.14.06-.21l-.03.07c.07-.11.07-.12,0-.03-.04,0-.17.08-.21.1-.09.04-.14-.11.03.03-.14-.12.14.11.14.11-.11-.09.14.15.16.18.04.04.14.16.15.25,0-.28,0,.15,0-.04,0-.1.14-.19,0-.05.05-.05.31-.34.33-.23,0,0-.17-.01-.17-.02-.27-.04-.54-.11-.8-.21-.24-.09-.57-.31-.72-.5.08.1-.13-.22-.11-.18-.14-.24,0,.1-.06-.17-.08-.34-.02.08-.02-.1,0-.05,0-.11,0-.16-.02.12-.01.12.01-.02.1-.29-.12.13.05-.12.14-.2.02-.06.01-.03l.07-.07c-.09.06-.09.06.02-.01-.26.09.23-.04-.07,0,.06,0,.14,0,.21,0-.3-.03.18.08-.07-.02.02,0,.3.19.12.05.04.03.26.18.1.08l.05.09c-.03-.1-.03-.09.01.04.09.25.03-.11.02.16,0,.23,0,.1,0,.05,0,0-.1.36-.03.17-.06.15-.16.35-.23.34.2.02-.15-.2.36-.05.06.02.12.05.17.09.07.1.07.09,0-.02,0,.03.05.17.05.17,0-.14,0-.17,0-.09.02-.09.04-.17.07-.25.03-.09.18-.38.28-.53.12-.2-.03.06-.19.1-.01,0-.37.03-.09.03-.13,0-.15-.18-.05,0-.04-.07.04.1.04.1.19.51.23.96.22,1.49,0,.15-.04.37-.13.57.08-.17-.11.16-.1.15.12-.16-.26.2-.09.09h1.14c.06.02.1.06.12.12-.06-.11-.07-.11-.02,0-.02-.05-.1-.44-.07-.21-.03-.28,0-.58.02-.86.05-.46.16-1.17.47-1.58-.05.06-.03.04.05-.05.1-.09.11-.1.03-.03-.11.02-.21.02-.31.03-.08-.06-.07-.05.03.04-.06-.08-.05-.06.02.05-.02-.09-.01-.06.03.07.03.08.05.16.06.25,0-.09,0-.06,0,.08,0,.09,0,.17,0,.26,0,.17-.01.35-.04.52-.02.13-.11.59-.18.84-.02.08-.05.16-.07.24-.05.13-.06.16-.03.08-.04.08-.08.15-.12.22-.08.12-.09.14-.04.06-.05.06-.11.11-.17.17.07-.06.05-.05-.06.03.09-.03.07-.02-.06.02.11,0,.1,0-.04,0,.11.02.11.02-.02-.02.06,0,.11.03.14.08-.09-.09-.1-.1-.02,0-.06-.12-.07-.12,0,0,.02.07.02.13,0,.2-.09.24-.27.38-.54.4.03-.04.21.02.32.04.34.06.67.15.99.26.35.11.49.18.8.33s.6.33.88.52c.15.1.18.12.28.21.07.05.13.11.2.17.17.19.16.08-.04-.31l1.42-1.08c.11.05,0,0-.04-.02-.07-.04-.13-.07-.2-.1-.13-.07-.26-.16-.38-.24-.04-.03-.13-.11-.04-.03-.06-.05-.11-.1-.17-.15-.12-.12-.24-.24-.35-.37-.01-.02-.14-.17-.09-.11s-.07-.1-.08-.12c-.08-.13-.16-.26-.23-.39,0-.02-.1-.2-.06-.12s-.04-.11-.05-.13c-.02-.07-.04-.16-.07-.22-.02-.07-.02-.07-.01,0,.02.2-.05.38-.2.55l-.5.29c-.3.09-.29,0-.09.08.07.03.07.03,0,0l.1.05c.1.06.2.11.29.18-.1-.07,0,0,.03.04.08.09.1.11.05.06-.05-.05-.04-.03.03.07l-.04-.07.03.11c-.01-.1-.02-.11-.02-.03,0,.08,0,.07,0-.04.04-.06.07-.11.11-.16.08-.1.17.02,0-.02.14.04.01-.01-.08-.02-.16,0,.2.07-.09-.02-.09-.03-.18-.05-.28-.08-.19-.07-.22-.08-.44-.2-.09-.05-.18-.11-.28-.17-.17-.11-.03-.08,0,.02l.15.57v-.09c-.06.19-.11.38-.16.57l.04-.07-.4.4.08-.04-.57.15c.06-.01.13-.01.19,0-.13-.02-.13-.01,0,.02l-.08-.03c.11.07.12.07.03,0,.04.03.08.07.11.11.05.06.05.05-.01-.02.06.12.07.12.02,0,.03.13.04.13.02,0,.07.6.47,1.12,1.12,1.12.55,0,1.2-.52,1.12-1.12h0Z"/><path class="cls-1" d="m274.87,375.21l1.04.07.3-.04.27-.11.23-.18c.11-.1.19-.22.23-.36.05-.09.08-.18.08-.28.03-.1.03-.2,0-.3,0-.1-.03-.2-.08-.28-.05-.14-.12-.26-.23-.36-.25-.27-.5-.55-.75-.82l-1.59,1.59c.18.15.36.29.54.44.1.11.22.19.36.23.13.07.28.1.43.1l.3-.04c.15-.03.27-.1.38-.2.08-.05.15-.12.2-.2.1-.11.17-.24.2-.38l.04-.3c0-.2-.05-.39-.15-.57-.04-.08-.07-.16-.11-.25-.07-.13-.17-.24-.29-.32-.11-.1-.24-.17-.38-.2-.15-.05-.3-.05-.45-.02-.15,0-.29.05-.42.13l-.23.18c-.14.14-.24.31-.29.5l-.04.3c0,.2.05.39.15.57.04.08.07.16.11.25l1.77-1.36c-.18-.15-.36-.29-.54-.44-.1-.11-.22-.19-.36-.23-.13-.07-.28-.1-.43-.1-.15,0-.3.03-.43.1-.14.05-.26.12-.36.23l-.18.23c-.1.18-.15.36-.15.57l.04.3c.05.19.15.36.29.5.25.27.5.55.75.82l.8-1.92-1.04-.07c-.15,0-.3.03-.43.1-.14.05-.26.12-.36.23-.11.1-.19.22-.23.36-.07.13-.1.28-.1.43l.04.3c.05.19.15.36.29.5l.23.18c.18.1.36.15.57.15h0Z"/><path class="cls-1" d="m269.45,379.93c2.15,3.51,5.46,6.57,6.12,10.8l2.17-.6c-1.45-3.48-3.15-6.85-5.14-10.06-.67-1.08-2.38-.39-2.06.87.76,2.91,1.89,5.72,3.36,8.35.71,1.26,2.65.13,1.94-1.14-1.38-2.47-2.42-5.08-3.13-7.82l-2.06.87c1.88,3.04,3.54,6.22,4.91,9.52.56,1.33,2.4.85,2.17-.6-.7-4.45-4.08-7.65-6.35-11.34-.76-1.23-2.7-.1-1.94,1.14h0Z"/><text class="cls-9" transform="translate(188.22 506.16)"><tspan x="0" y="0">house</tspan></text><path class="cls-3" d="m168.29,416.02s-.1.03-.15.04l.4-.05c-.15.02-.29,0-.44-.02l.4.05c-.06,0-.11-.02-.16-.04l.36.15s-.05-.02-.07-.04l.3.23s-.03-.02-.04-.03l.23.3s-.02-.03-.02-.04l.15.36s0-.02,0-.03c-.05-.2-.14-.37-.27-.51-.11-.16-.25-.29-.42-.39l-.36-.15c-.2-.06-.4-.07-.6-.03-.14,0-.26.03-.38.1-.19.06-.35.16-.48.31l-.23.3c-.14.23-.2.49-.2.76,0,.06-.01.12-.02.17,0,.21.04.4.13.58.06.19.16.35.31.48l.3.23c.17.11.36.17.56.18.13.04.27.04.4,0,.2,0,.39-.07.56-.18l.3-.23c.19-.19.31-.41.39-.66.08-.26.08-.62,0-.88-.09-.29-.21-.52-.43-.74-.38-.38-.95-.53-1.46-.39-.25.07-.47.2-.66.39-.19.19-.31.41-.39.66,0,.03-.01.06-.02.09-.02.16-.05.31-.06.47,0,.06,0,.12,0,.18l2.95-.4s-.02-.1-.03-.14c-.06-.16-.12-.33-.21-.47l-.23-.3c-.14-.15-.3-.25-.48-.31-.12-.07-.24-.1-.38-.1-.2-.04-.4-.04-.6.03l-.36.15-.3.23c-.15.14-.25.3-.31.48-.09.18-.14.37-.13.58v.27c-.01.21.03.4.12.58.06.19.16.35.31.48.14.15.3.25.48.31.18.09.37.14.58.13l.4-.05c.25-.07.47-.2.66-.39l.23-.3c.14-.23.2-.49.2-.76.02-.28-.03-.55-.07-.82-.05-.2-.14-.37-.27-.51-.11-.16-.25-.29-.42-.39-.17-.11-.36-.17-.56-.18-.2-.04-.4-.04-.6.03l-.36.15c-.23.13-.4.31-.54.54l-.15.36c-.07.27-.07.53,0,.8v.02c-.02-.13-.03-.27-.05-.4.02.13.02.27.01.41h3v-.27c-.93.25-1.86.5-2.79.76.02.03.03.05.04.08l-.15-.36c.02.06.04.12.05.18.05.2.14.37.27.51.11.16.25.29.42.39l.36.15c.2.06.4.07.6.03.14,0,.26-.03.38-.1.19-.06.35-.16.48-.31l.23-.3c.14-.23.2-.49.2-.76,0-.08,0-.16,0-.24l-.05.4s.01-.07.02-.1l-2.51.66s.01.01.02.02l-.23-.3s.01.02.01.03l-.15-.36s0,.02,0,.03l-.05-.4s0,.03,0,.05l.05-.4s0,.02,0,.03l2.95.4c0-.06.01-.12.02-.17l-2.95.4s0,.02,0,.03l.15.36h0s0,.03.01.03h0c.08.11.16.21.23.31.01.01.02.02.04.03l.3.23h.01s.01.02.02.02.02,0,.02.01c.11.05.26.11.37.16.02,0,.04.01.05.02.1.03.21.04.31.05.16.02.33.05.5.05.12,0,.23-.02.34-.03s.24-.02.35-.06c.2-.05.37-.14.51-.27.16-.11.29-.25.39-.42.11-.17.17-.36.18-.56.04-.2.04-.4-.03-.6l-.15-.36c-.13-.23-.31-.4-.54-.54l-.36-.15c-.27-.07-.53-.07-.8,0h0Z"/><path class="cls-3" d="m247.21,302.55l-.03-.36-2.26,1.3s.05.03.07.04c.17.11.36.17.56.18.2.04.4.04.6-.03l.36-.15c.17-.09.32-.22.42-.39.09-.09.16-.2.19-.33.09-.18.14-.37.13-.58l-.05-.4c-.07-.25-.2-.47-.39-.66-.02-.02-.04-.04-.07-.06-.14-.15-.3-.25-.48-.31-.18-.09-.37-.14-.58-.13-.21,0-.4.04-.58.13-.19.06-.35.16-.48.31l-.23.3c-.14.23-.2.49-.2.76l.05.4c.07.25.2.47.39.66.02.02.04.04.07.06l1.82-2.36s-.05-.03-.07-.04c-.23-.14-.49-.2-.76-.2-.27,0-.52.07-.76.2-.23.13-.4.31-.54.54-.14.23-.2.49-.2.76l.03.36c0,.21.04.4.13.58.06.19.16.35.31.48.14.15.3.25.48.31.18.09.37.14.58.13l.4-.05c.25-.07.47-.2.66-.39l.23-.3c.14-.23.2-.49.2-.76h0Z"/><path class="cls-2" d="m184.15,395.07c-.22,4.14-.38,8.42,1.18,12.34.72,1.8,3.18,1.12,2.89-.8-.92-6.03-1.6-12.09-2.07-18.17-.15-1.91-3.15-1.93-3,0,.49,6.35,1.22,12.67,2.18,18.97l2.89-.8c-1.47-3.69-1.29-7.65-1.07-11.55.1-1.93-2.9-1.92-3,0h0Z"/><path class="cls-1" d="m183.32,388.33c-.9,7.41-1.78,14.83-1.86,22.3-.02,1.93,2.98,1.93,3,0,.09-7.18.01-14.37-.22-21.54-.06-1.93-3.06-1.93-3,0,.24,7.18.31,14.36.22,21.54h3c.08-7.47.97-14.9,1.86-22.3.1-.81-.76-1.49-1.5-1.5-.89,0-1.4.7-1.5,1.5h0Z"/><path class="cls-2" d="m192.37,368.6c3.86,0,3.87-6,0-6s-3.87,6,0,6h0Z"/><path class="cls-1" d="m186.38,396.09c.5-3.56,1.66-6.92,3.35-10.08.88-1.64,1.87-3.22,2.93-4.75s2.87-3.21,3.07-5.17c.28-2.74-2.42-5.18-5.1-3.91-1.8.85-3.12,3.16-4.27,4.72-2.37,3.21-4.42,6.64-6.16,10.23l5.59,1.51c.65-5.3,3.19-10.58,6.91-14.56,2.63-2.82-1.6-7.07-4.24-4.24-4.88,5.23-7.8,11.73-8.66,18.8-.36,2.95,4.34,4.09,5.59,1.51s2.53-4.84,4.01-7.12c.72-1.11,1.48-2.21,2.27-3.27.68-.91,1.36-2,2.24-2.72l-1.32.77-.31.04-1.51-.41-.22-.14-.77-1.32c.39-1.23.41-1.53.05-.9.2-.22.05-.02-.45.58-.24.32-.48.63-.72.95-.55.75-1.09,1.51-1.61,2.28-1.04,1.54-2,3.14-2.85,4.79-1.74,3.4-3.06,7.02-3.59,10.81-.22,1.6.39,3.22,2.1,3.69,1.4.39,3.46-.48,3.69-2.1h0Z"/><path class="cls-1" d="m184.3,415.66c-.33-5.19-.61-10.39-.16-15.58l-5.89.8c2.12,5.47,4.59,10.73,8.38,15.26l1.32-5.01c-.58.14-1.18.27-1.77.35.56-.07-.29.02-.4.02-.35.03-.7.04-1.05.05-.25,0-.51,0-.76,0-.7-.03.2.08-.04,0-.1-.02-.2-.04-.31-.07-.25-.09-.26-.09-.02,0,.23.1.23.09,0-.03.39.21.64.55.75,1v1.6l.05-.21-1.38,1.79.15-.09-1.51.41c.84-.1,1.71-.06,2.55-.04,1.57.03,3.07-1.4,3-3s-1.32-2.97-3-3c-1.86-.04-4.2-.25-5.3,1.62-1.16,1.98.11,4.24,1.92,5.25,2.5,1.4,6.09.77,8.72.15,1.01-.24,1.82-1.11,2.1-2.1.3-1.1-.07-2.08-.77-2.92-.23-.28-.46-.55-.68-.84.37.47-.11-.15-.18-.25-.37-.51-.73-1.03-1.07-1.55-.71-1.09-1.36-2.22-1.97-3.38s-1.13-2.26-1.64-3.42c-.13-.29-.25-.58-.38-.87.25.58-.12-.3-.17-.41-.26-.63-.5-1.26-.75-1.89-.55-1.41-1.72-2.36-3.29-2.15s-2.47,1.44-2.6,2.95c-.45,5.19-.17,10.39.16,15.58.1,1.56,1.31,3.08,3,3,1.54-.07,3.11-1.32,3-3h0Z"/><path class="cls-1" d="m186.09,407.93c1.25,2.16,2.41,4.42,4.02,6.35,1.51,1.8,3.37,3.36,5.06,4.99.92.89,2.51,1.19,3.64.47s1.77-2.08,1.38-3.39c-.46-1.57-1.23-2.92-2.28-4.17-.39-.47-.84-.89-1.27-1.33-.23-.23-.44-.47-.66-.72-.28-.32-.02.07.09.12-.11-.05-.23-.33-.29-.42-.15-.23-.29-.46-.42-.71-.1-.19-.43-.63-.41-.83-.01.11.22.55.06.15-.05-.13-.1-.26-.15-.39-.11-.29-.21-.59-.3-.89-.36-1.17-.62-2.36-.87-3.56-.32-1.54-2.21-2.57-3.69-2.1-1.62.53-2.44,2.04-2.1,3.69.53,2.51,1.14,5.08,2.47,7.31.71,1.2,1.66,2.21,2.63,3.2.2.21.4.42.59.63.43.49-.02.01,0-.01,0,0,.22.33.24.36.15.25.29.5.42.76.31.61-.11-.39-.01-.02.04.17.11.34.17.52l5.01-2.92c-1.64-1.58-3.41-3.09-4.91-4.81-.1-.12-.2-.24-.3-.36l.18.23c-.21-.21-.37-.53-.53-.78-.3-.47-.58-.94-.85-1.42-.58-.99-1.15-1.99-1.73-2.98-.79-1.36-2.75-1.95-4.1-1.08s-1.92,2.65-1.08,4.1h0Z"/><path class="cls-2" d="m274.3,386.04c1.29,4.6,1.63,9.44.92,14.17-.09.61.15,1.2.79,1.38.53.15,1.29-.19,1.38-.79.77-5.14.48-10.35-.92-15.36-.39-1.39-2.56-.8-2.17.6h0Z"/><path class="cls-1" d="m266.13,369.96c1.23,1.13,2.77,1.66,4.19,2.49,1.33.77,2.59,1.81,3.18,3.27.18.44.9.25.72-.2-.59-1.48-1.73-2.59-3.06-3.44-1.47-.94-3.2-1.46-4.5-2.65-.35-.33-.89.2-.53.53h0Z"/><path class="cls-2" d="m277.03,386.49l1-7.68c.05-.39-.52-.48-.7-.19-1.47,2.36-2.14,5.17-1.87,7.94.05.48.7.48.75,0,.3-2.71.6-5.41.89-8.12h-.75c.08,2.21.16,4.43.24,6.64.02.48.74.48.75,0,.06-2.55.12-5.11.18-7.66.01-.5-.69-.46-.75,0-.37,2.9-.6,5.8-.7,8.72-.02.48.73.48.75,0,.1-2.92.33-5.83.7-8.72h-.75c-.06,2.55-.12,5.11-.18,7.66h.75c-.08-2.21-.16-4.43-.24-6.64-.02-.49-.7-.47-.75,0-.3,2.71-.6,5.41-.89,8.12h.75c-.25-2.65.36-5.3,1.77-7.56l-.7-.19-1,7.68c-.06.48.69.47.75,0h0Z"/><path class="cls-2" d="m270.92,412.75c-.45.06-.88.25-1.24.52-.08.06-.14.12-.17.22-.02.09-.01.21.04.29s.13.15.22.17.21.02.29-.04c.16-.12.34-.23.53-.31l-.09.04c.2-.08.41-.14.62-.17.09-.01.18-.1.22-.17.05-.08.07-.2.04-.29s-.09-.18-.17-.22l-.09-.04c-.07-.02-.13-.02-.2,0h0Z"/><path class="cls-2" d="m267.64,414.13c.29-.85.79-1.53,1.42-2.16s1.02-1.35,1.46-2.14c.94-1.71,2-3.35,3.2-4.89.29-.38-.23-.91-.53-.53-1.24,1.59-2.35,3.27-3.32,5.04-.22.4-.41.81-.66,1.19-.26.41-.62.72-.96,1.06-.61.64-1.06,1.38-1.34,2.22-.16.46.57.65.72.2h0Z"/><path class="cls-1" d="m272.11,391.95c.06.36.07.39.02.08.02.15.03.29.04.44.02.34.03.69.03,1.03,0,.59-.04,1.18-.1,1.77-.01.11-.11.91-.04.38-.05.35-.1.69-.16,1.03-.11.64-.22,1.28-.32,1.93-.24,1.43-.44,2.88-.53,4.33-.03.56-.06,1.13-.11,1.69-.06.7.12-.3-.06.31-.03.11-.38,1.14-.14.6-.64,1.43-.46,3.29,1.08,4.1,1.31.69,3.42.45,4.1-1.08.74-1.65.99-3.26,1.09-5.06.04-.67.08-1.34.15-2.02.07-.71-.05.25.05-.39.06-.4.12-.79.19-1.19.54-3.22,1.05-6.3.49-9.56-.27-1.55-2.25-2.56-3.69-2.1-1.67.54-2.38,2.03-2.1,3.69h0Z"/><path class="cls-1" d="m274.7,386.45c-.09,1.82.43,3.74,1.49,5.23.74,1.06,2.06,1.81,3.39,1.38s2.1-1.52,2.2-2.89c.22-3.01-.51-6.07-1.93-8.72-.7-1.31-1.64-2.49-2.65-3.57-.24-.25-.47-.5-.7-.76-.05-.06-.34-.46-.12-.14s-.05-.1-.09-.16c-.18-.29-.26-.32-.06,0-.08-.12-.11-.32-.16-.46-.2-.55-.41-1.09-.69-1.6-.75-1.38-2.77-1.94-4.1-1.08s-1.88,2.63-1.08,4.1c.18.33.14.07,0-.06.08.08.12.35.16.46.18.5.38,1,.63,1.47.37.68.89,1.3,1.41,1.88.43.48.88.94,1.31,1.43.31.36,0-.08-.06-.08.04,0,.23.32.26.36.19.28.37.56.54.85.15.26.29.52.42.79.07.13.12.27.19.4.19.37-.18-.5-.04-.1.21.6.42,1.19.56,1.81.07.29.12.58.17.87.08.47-.08-.06-.02-.14-.04.05.04.37.04.44.05.67.04,1.34,0,2l5.59-1.51c-.18-.26-.33-.52-.49-.79-.14-.3-.13-.28.03.08-.04-.11-.08-.22-.11-.33-.03-.11-.06-.22-.09-.34-.06-.34-.06-.3,0,.11-.1-.24-.03-.68-.01-.93.08-1.57-1.44-3.07-3-3-1.69.08-2.92,1.32-3,3h0Z"/><path class="cls-2" d="m272.45,373.06c-.65-.26-1.3-.55-1.97-.75-.41-.12-.84-.2-1.27-.23-.7-.04-1.31.38-1.52,1.05-.16.51-.07,1.06.15,1.53.19.4.5.71.85.97.64.47,1.54.57,2.31.58.44,0,.85-.16,1.12-.51.35-.45.32-1.02.04-1.49-.24-.42-.61-.77-1.03-1.01-.51-.29-1.25-.14-1.54.4s-.14,1.23.4,1.54c.08.04.15.09.22.14l-.23-.18c.11.09.21.18.29.29l-.18-.23c.06.09.12.17.17.27l-.11-.27.02.06-.04-.3v.06c.05-.19.1-.38.15-.57l-.02.03.18-.23-.03.03.23-.18-.03.02.27-.11s-.05.02-.08.02l.3-.04c-.26.02-.54-.02-.8-.05l.3.04c-.23-.03-.46-.09-.68-.17l.27.11c-.13-.06-.25-.13-.37-.21l.23.18c-.09-.08-.18-.16-.25-.25l.18.23c-.07-.09-.13-.19-.18-.3l.11.27c-.04-.09-.06-.18-.08-.28l.04.3c0-.08,0-.16,0-.24l-.04.3c.01-.07.03-.13.05-.19l-.11.27.02-.04-.18.23s.04-.05.07-.07l-.23.18.04-.02-.27.11s.08-.03.13-.04l-.3.04c.12-.01.25,0,.37.02l-.3-.04c.95.13,1.85.56,2.73.91.25.1.64.02.87-.11s.46-.4.52-.67c.07-.29.05-.61-.11-.87s-.39-.4-.67-.52h0Z"/><path class="cls-1" d="m275.58,377.54c.07.02.13.04.2.06.29.1-.08-.06.07.03.14.08.28.14.41.23.12.07.23.15.35.24-.15-.11.03.03.06.05.05.05.11.09.16.14.49.43.96.91,1.37,1.41.12.15-.08-.11.03.04.04.06.09.12.13.18.09.14.18.29.26.44.01.02.13.27.09.17-.04-.08.04.11.05.13.06.16.11.32.17.48.22.69.43,1.38.64,2.06.17.56.79.98,1.38.79s.97-.78.79-1.38c-.24-.76-.46-1.53-.71-2.28-.28-.83-.67-1.54-1.22-2.23-.94-1.16-2.16-2.3-3.62-2.74-.56-.17-1.25.2-1.38.79s.18,1.2.79,1.38h0Z"/><path class="cls-1" d="m279,390.64c-1.15,6.69-2.11,13.42-2.87,20.17-.16,1.44,2.08,1.42,2.25,0,.75-6.45,1.98-12.84,3.65-19.12l-2.21-.3c0,5.16.04,10.32.74,15.44l2.17-.6c-.61-2.64-.95-5.31-1.04-8.02-.05-1.45-2.18-1.45-2.25,0-.16,3.35-.09,6.7.22,10.04l2.21-.3c-.3-2.07-.55-4.16-.75-6.24-.14-1.42-2.21-1.47-2.25,0-.07,2.83-.14,5.65-.21,8.48l2.1-.57c-.37-.64-.58-1.27-.62-2.02l-1.42,1.08c.81.34,1.57.79,2.3,1.29.77.53,1.62-.2,1.69-.97s-.09-1.41-.4-2.11l-1.94,1.14c.27.5.59.93.98,1.34,1,1.05,2.59-.54,1.59-1.59-.27-.28-.44-.54-.63-.88-.7-1.31-2.5-.16-1.94,1.14.14.33.12.63.09.98l1.69-.97c-.9-.61-1.84-1.09-2.84-1.51-.67-.28-1.46.42-1.42,1.08.06,1.14.35,2.17.92,3.15s2.07.54,2.1-.57c.07-2.83.14-5.65.21-8.48h-2.25c.22,2.29.5,4.57.83,6.84.18,1.24,2.32.96,2.21-.3-.3-3.34-.38-6.69-.22-10.04h-2.25c.09,2.9.47,5.79,1.12,8.62.33,1.45,2.36.79,2.17-.6-.67-4.92-.66-9.89-.66-14.84,0-1.26-1.88-1.54-2.21-.3-1.72,6.48-2.95,13.07-3.73,19.72h2.25c.74-6.55,1.68-13.07,2.79-19.57.24-1.42-1.92-2.02-2.17-.6h0Z"/><path class="cls-2" d="m283.69,414.85c1.45,0,1.45-2.25,0-2.25s-1.45,2.25,0,2.25h0Z"/><path class="cls-1" d="m284.76,414.01c.21-.67-.09-1.42-.72-1.75-.69-.36-1.78.07-1.69.97.06.61.12,1.22.17,1.83,0,.03.04.54.05.54l.4-.49-.14.03c-.25,0-.53.09-.77.16-1.1.34-2.05.99-3.1,1.44-2.12.91-4.47,1.23-6.73,1.57-.6.09-.93.85-.79,1.38.18.64.78.88,1.38.79,2.68-.4,5.36-.84,7.81-2.05.53-.26,1.04-.57,1.58-.8s1.09-.23,1.61-.44c.72-.29,1.04-.94.98-1.69s-.14-1.51-.21-2.26l-1.69.97-.05-.03-.29-.5.02-.26c-.43,1.39,1.75,1.98,2.17.6h0Z"/><path class="cls-1" d="m282.1,415.89c-.35,3.56-6.55,2.9-8.95,2.84-3.44-.08-6.89-.23-10.24.68l.4,1.45c2.74-.86,3.7-3.56,5.44-5.56.63-.73-.43-1.79-1.06-1.06-1.49,1.72-2.44,4.45-4.78,5.18-.92.29-.54,1.7.4,1.45,4.11-1.12,8.36-.52,12.55-.61,3.05-.07,7.37-.53,7.74-4.36.09-.96-1.41-.95-1.5,0h0Z"/><path class="cls-1" d="m284.73,412.74c-.31-4.43-.36-8.97-1.09-13.36s-2.23-8.69-3.48-12.97c-.13-.46-.86-.27-.72.2,1.2,4.12,2.62,8.26,3.39,12.49.81,4.46.83,9.12,1.15,13.63.03.48.78.48.75,0h0Z"/><path class="cls-1" d="m283.14,401.57c-.01-2.62-.11-5.25-.31-7.86-.04-.48-.79-.48-.75,0,.19,2.62.3,5.24.31,7.86,0,.48.75.48.75,0h0Z"/><path class="cls-1" d="m282.39,402.37c.61-5.63.69-11.29.24-16.94-.12-1.56-1.29-3.08-3-3-1.52.07-3.13,1.32-3,3,.45,5.64.37,11.31-.24,16.94-.17,1.57,1.5,3.07,3,3,1.77-.08,2.82-1.32,3-3h0Z"/><path class="cls-1" d="m278.64,380.28c3.86,0,3.87-6,0-6s-3.87,6,0,6h0Z"/><path class="cls-1" d="m277.11,379.61c3.86,0,3.87-6,0-6s-3.87,6,0,6h0Z"/><path class="cls-1" d="m270.09,378.93c3.86,0,3.87-6,0-6s-3.87,6,0,6h0Z"/><path class="cls-1" d="m273.64,413.27c.55-1.77,1.19-3.52,1.91-5.23l-.3.72c.36-.84.74-1.67,1.18-2.46.22-.39.46-.78.72-1.15.06-.09.13-.18.2-.28-.3.38-.35.45-.16.21.15-.17.29-.35.45-.51,1.06-1.16,1.23-3.11,0-4.24-1.15-1.06-3.11-1.24-4.24,0-1.38,1.51-2.39,3.24-3.2,5.1-.89,2.05-1.68,4.13-2.34,6.26-.47,1.5.55,3.34,2.1,3.69,1.63.37,3.19-.49,3.69-2.1h0Z"/><path class="cls-1" d="m267.02,417.58c-.36.02-.72.02-1.09.01-.17,0-.34-.01-.51-.03-.1,0-.19-.01-.29-.02.31.03.56.19.75.49l.2.76-.3.69s.08-.08.12-.12c.06-.06.13-.11.19-.16.15-.12.3-.25.45-.37.31-.26.62-.54.91-.82.58-.54,1.14-1.11,1.66-1.71,1.11-1.25,2.12-2.61,2.99-4.04.41-.67.17-1.68-.54-2.05s-1.62-.18-2.05.54c-.29.48-.6.95-.92,1.4-.16.23-.32.46-.49.68-.04.05-.08.1-.12.15.1-.13.1-.13,0,0-.08.1-.16.2-.24.3-.69.85-1.43,1.66-2.23,2.42-.39.37-.79.73-1.2,1.08-.6.5-1.25,1.03-1.25,1.9,0,2.05,2.48,1.96,3.93,1.89.78-.04,1.54-.66,1.5-1.5-.03-.78-.66-1.54-1.5-1.5h0Z"/><path class="cls-1" d="m265.39,418.89c.91-1.17,1.84-2.33,2.73-3.52.8-1.07,1.54-2.18,2.08-3.4.23-.54.18-1.23-.4-1.54-.49-.26-1.29-.17-1.54.4-.52,1.19-1.23,2.27-2,3.31-.4.54-.66.86-1.1,1.42l-1.35,1.74c-.36.46-.49,1.15,0,1.59.4.37,1.2.5,1.59,0h0Z"/><path class="cls-1" d="m267.99,419.23l2.75.05c.84.02,1.69.07,2.53-.02.9-.1,1.62-.41,2.45-.73.4-.16.82-.26,1.25-.34.18-.03.37-.06.55-.09.08-.01.17-.02.25-.04.14-.01.15-.01.03,0l-.5-.29.07.08-.33-.8v.13c.06-.19.11-.38.16-.57.14-.23.14-.04-.02-.07-.19-.03-.41.01-.6,0-.42-.02-.83-.07-1.24-.03-.89.07-1.62.6-2.5.7-1.17.14-2.63-.36-3.4-1.39l-.67,1.65c.62-.16,1.12-.25,1.7.05.61.32,1.12.81,1.67,1.23,1.26.97,2.82,1.52,4.32.73,1.28-.68.14-2.62-1.14-1.94-.98.52-2.27-.95-2.96-1.46-.53-.4-1.13-.75-1.77-.91-.82-.2-1.62-.07-2.42.13-.64.16-1.11,1.07-.67,1.65.91,1.22,2.19,2.1,3.7,2.39.78.15,1.52.15,2.3.02.69-.12,1.31-.56,1.99-.62.77-.07,1.51.14,2.28-.04.94-.23,1.98-1.19,1.37-2.22-.57-.97-1.78-.65-2.68-.49s-1.61.52-2.44.81c-.9.32-1.85.25-2.79.23l-3.24-.06c-1.45-.03-1.45,2.22,0,2.25h0Z"/><path class="cls-1" d="m262.43,420.83c.48,0,.48-.75,0-.75s-.48.75,0,.75h0Z"/><path class="cls-2" d="m279.17,420.59c1.45,0,1.45-2.25,0-2.25s-1.45,2.25,0,2.25h0Z"/><path class="cls-1" d="m279.3,420.21c1.45,0,1.45-2.25,0-2.25s-1.45,2.25,0,2.25h0Z"/><path class="cls-1" d="m279,420.57c1.45,0,1.45-2.25,0-2.25s-1.45,2.25,0,2.25h0Z"/><path class="cls-1" d="m279.93,420.63c1.45,0,1.45-2.25,0-2.25s-1.45,2.25,0,2.25h0Z"/><path class="cls-1" d="m279.45,420.72c1.45,0,1.45-2.25,0-2.25s-1.45,2.25,0,2.25h0Z"/><path class="cls-1" d="m281.94,397.95c1.93,0,1.93-3,0-3s-1.93,3,0,3h0Z"/><path class="cls-1" d="m274.53,373.3c1.22,0,2.4.34,3.56.68.93.27,2.03.66,2.4,1.65.17.45.89.25.72-.2-.43-1.15-1.49-1.73-2.61-2.08-1.31-.41-2.7-.79-4.08-.8-.48,0-.48.75,0,.75h0Z"/><path class="cls-1" d="m281.27,375.82c.12,1.62.3,3.23.54,4.83.07.43.72.3.74-.1.06-1.45.06-2.91,0-4.36,0-.15-.11-.34-.28-.36-.66-.09-.77.52-.82,1.03-.07.75-.12,1.49-.15,2.24-.06,1.52-.05,3.05.05,4.57l.74-.1c-.34-1.88-.6-3.76-.78-5.66-.04-.48-.72-.49-.75,0-.1,1.87.27,3.71.64,5.53l.69-.29c-.58-1.17-1.07-2.37-1.48-3.61-.15-.46-.88-.26-.72.2.43,1.3.95,2.56,1.56,3.79.2.4.77.11.69-.29-.36-1.76-.71-3.52-.62-5.33h-.75c.18,1.97.45,3.92.8,5.86.08.41.76.32.74-.1-.08-1.21-.1-2.43-.08-3.64.01-.59.04-1.19.07-1.78.02-.31.04-.62.07-.93.01-.13,0-.77.12-.82l-.29.04h.08c-.09-.11-.18-.23-.28-.35.06,1.45.06,2.91,0,4.36l.74-.1c-.23-1.54-.4-3.08-.52-4.63-.03-.48-.79-.48-.75,0h0Z"/><path class="cls-1" d="m186.63,338.29c6.09-6.91,13.47-12.56,21.72-16.63.43-.21.05-.86-.38-.65-8.31,4.1-15.75,9.79-21.88,16.74-.32.36.21.89.53.53h0Z"/><path class="cls-1" d="m184.53,339.63c7.02-6.64,13.87-13.46,20.54-20.45,5.75-6.02,13.12-14.77,22.55-11.79.46.15.66-.58.2-.72-9.02-2.84-16.35,4.68-21.95,10.58-7.09,7.48-14.39,14.76-21.87,21.85-.35.33.18.86.53.53h0Z"/><path class="cls-1" d="m190.87,350.44c6.85-6.27,13.33-12.96,19.94-19.48,5.93-5.84,12.54-14.21,21.7-14,.48.01.48-.74,0-.75-8.95-.2-15.35,7.44-21.16,13.17-6.96,6.86-13.79,13.92-21,20.52-.36.33.17.86.53.53h0Z"/><path class="cls-1" d="m213.19,328.67c3.4-3.4,6.97-6.61,10.71-9.62.38-.3-.16-.83-.53-.53-3.74,3.01-7.32,6.22-10.71,9.62-.34.34.19.87.53.53h0Z"/><path class="cls-1" d="m263.49,343.5c-6.6-5.57-12.95-11.44-19-17.61-4.75-4.84-11.04-11.53-18.59-8.6-.45.17-.25.9.2.72,7.92-3.07,14.28,4.83,19.18,9.75,5.65,5.68,11.55,11.1,17.67,16.27.37.31.9-.22.53-.53h0Z"/><path class="cls-1" d="m226.45,318.1c1.88-.48,3.81-.65,5.74-.54.48.03.48-.72,0-.75-2-.12-4,.08-5.94.57-.47.12-.27.84.2.72h0Z"/><path class="cls-1" d="m227.68,317.85c.69-.1,1.38-.24,2.08-.24s1.45.03,2.17.05c.48.01.48-.74,0-.75-.75-.02-1.5-.07-2.25-.05s-1.47.16-2.2.27c-.2.03-.31.28-.26.46.06.21.26.29.46.26h0Z"/><path class="cls-1" d="m227.4,317.88c.48,0,.48-.75,0-.75s-.48.75,0,.75h0Z"/><path class="cls-1" d="m227.44,317.88c.48,0,.48-.75,0-.75s-.48.75,0,.75h0Z"/><path class="cls-1" d="m228.46,317.77c.69-.07,1.38-.13,2.07-.1s1.37.1,2.05.15c.2.01.38-.18.38-.38,0-.22-.17-.36-.38-.38-.68-.05-1.36-.12-2.05-.15s-1.38.03-2.07.1c-.2.02-.38.16-.38.38,0,.19.17.39.38.38h0Z"/><path class="cls-1" d="m232.09,317.81s.05,0,.02,0c.02,0,.04,0,.06,0,.04,0,.09.01.13.02.08.01.15.02.23.04.17.03.33.06.5.09.33.07.66.15.98.24.19.05.42-.06.46-.26s-.06-.41-.26-.46c-.69-.19-1.4-.33-2.11-.42-.2-.03-.38.19-.38.38.01.22.17.35.38.38h0Z"/><path class="cls-1" d="m232.81,317.79c.05.07.11.14.19.18.05.03.11.05.16.06.09.02.17.05.26.07.19.05.39.14.59.12.1,0,.19-.04.27-.11.07-.07.11-.17.11-.27s-.04-.2-.11-.27-.17-.12-.27-.11c-.03,0-.06,0-.08,0h.1c-.13,0-.25-.05-.37-.09s-.24-.06-.35-.1l.09.04s-.03-.01-.04-.02l.08.06s-.01-.01-.02-.02l.06.08h0c-.06-.09-.13-.15-.22-.18-.09-.02-.21-.01-.29.04s-.15.13-.17.22-.02.21.04.29h0Z"/><path class="cls-1" d="m263.48,338.81c1.93,0,1.93-3,0-3s-1.93,3,0,3h0Z"/><path class="cls-1" d="m256.12,333.2c.06.02.12.05.18.07l-.36-.15c.52.22,1,.51,1.45.85l-.3-.23c.25.19.48.4.7.63.26.27.68.44,1.06.44s.81-.16,1.06-.44.46-.66.44-1.06-.16-.77-.44-1.06c-.41-.43-.89-.81-1.38-1.14s-1.05-.58-1.61-.8c-.2-.06-.4-.07-.6-.03-.2,0-.39.07-.56.18-.31.18-.61.54-.69.9-.09.38-.07.81.15,1.16l.23.3c.19.19.41.31.66.39h0Z"/><path class="cls-1" d="m263.68,343.88c2.14-3.38,5.59-5.81,9.49-6.7.47-.11.27-.83-.2-.72-4.09.93-7.7,3.5-9.94,7.04-.26.41.39.79.65.38h0Z"/><path class="cls-1" d="m240.9,308.56c5.36,4.74,10.72,9.48,16.08,14.21s10.61,9.19,15.6,14.11c.34.34.87-.19.53-.53-4.99-4.92-10.35-9.47-15.6-14.11s-10.72-9.48-16.08-14.21c-.36-.32-.89.21-.53.53h0Z"/><path class="cls-1" d="m218.96,307.93c7.03-3.16,15.22-2.89,22.04.68.43.22.81-.42.38-.65-7.08-3.7-15.51-3.96-22.8-.68-.44.2-.06.84.38.65h0Z"/><path class="cls-1" d="m250.39,328.83c2.35,0,4.61-2.07,4.5-4.5s-1.98-4.5-4.5-4.5c-2.35,0-4.61,2.07-4.5,4.5s1.98,4.5,4.5,4.5h0Z"/><path class="cls-1" d="m259.21,335.17c2.35,0,4.61-2.07,4.5-4.5s-1.98-4.5-4.5-4.5c-2.35,0-4.61,2.07-4.5,4.5s1.98,4.5,4.5,4.5h0Z"/><path class="cls-1" d="m253.64,333.47c2.35,0,4.61-2.07,4.5-4.5s-1.98-4.5-4.5-4.5c-2.35,0-4.61,2.07-4.5,4.5s1.98,4.5,4.5,4.5h0Z"/><path class="cls-1" d="m246.32,328.03c.78,1.29,1.87,2.38,3.16,3.18.33.2.79.25,1.16.15.35-.1.73-.36.9-.69.18-.35.28-.77.15-1.16s-.35-.69-.69-.9c-.25-.15-.48-.31-.71-.49l.3.23c-.52-.41-.99-.88-1.4-1.4l.23.3c-.18-.24-.36-.49-.51-.75-.2-.33-.53-.59-.9-.69s-.84-.05-1.16.15-.6.51-.69.9-.06.81.15,1.16h0Z"/><path class="cls-1" d="m248.2,326.09c-.86-1.57-2.22-2.75-3.52-3.94-1.42-1.3-2.87-2.58-4.43-3.72-2.99-2.19-6.52-3.77-10.28-3.75-1.93.01-1.93,3.01,0,3,3.25-.02,6.2,1.45,8.77,3.34,1.31.96,2.52,2.05,3.71,3.15s2.4,2.06,3.16,3.43c.93,1.69,3.52.18,2.59-1.51h0Z"/><path class="cls-1" d="m212.04,317.62c-1.28,2.19-2.97,4.07-4.63,5.97-1.85,2.12-3.69,4.24-5.54,6.36l2.51,1.46c.46-1.55,1.41-2.91,2.32-4.24.84-1.23,1.73-2.43,2.67-3.59,1.98-2.43,4.15-4.69,6.5-6.77l-2.12-2.12c-4.28,4.43-8.41,8.99-12.55,13.56l2.36,1.82c2.86-6.14,6.7-12.28,12.06-16.53l-2.51-1.46c-.08.25-.17.32-.37.5-1.44,1.29.69,3.41,2.12,2.12.57-.51.91-1.1,1.14-1.83.5-1.57-1.44-2.31-2.51-1.46-5.54,4.38-9.58,10.8-12.53,17.14-.67,1.44,1.13,3.17,2.36,1.82,4.13-4.56,8.27-9.12,12.55-13.56,1.35-1.4-.68-3.4-2.12-2.12-2.5,2.22-4.82,4.65-6.9,7.27s-4.39,5.44-5.35,8.65c-.41,1.39,1.51,2.61,2.51,1.46,1.93-2.21,3.86-4.42,5.78-6.63,1.74-2,3.52-4,4.86-6.3.97-1.67-1.62-3.18-2.59-1.51h0Z"/><path class="cls-1" d="m201.35,326.87c.86-1.56,2.15-2.75,3.44-3.95,1.36-1.27,2.72-2.54,4.11-3.77,2.76-2.45,5.64-4.73,8.82-6.6,1.66-.98.16-3.57-1.51-2.59-3.4,1.99-6.49,4.46-9.43,7.07-1.43,1.27-2.82,2.57-4.22,3.87s-2.84,2.72-3.8,4.46,1.66,3.21,2.59,1.51h0Z"/><path class="cls-1" d="m221.87,307.75c-.68.19-1.31.24-2.01.27-.26.01-.17-.06,0,.03-.19-.11-.38-.22-.59-.29-.5-.16-.98-.05-1.44.17-1.21.59-2.36,1.38-3.43,2.18-2.3,1.73-4.29,3.73-6.02,6.03-.49.65-.1,1.68.54,2.05.77.45,1.56.11,2.05-.54,1.12-1.5,2.43-2.86,3.85-4.07.68-.58,1.38-1.12,2.12-1.62.41-.28.82-.54,1.24-.79.18-.11.36-.21.54-.32.12-.07.24-.14.37-.21.21-.13.24-.14.09-.03h-.8c.16.06.56.29.88.34.39.06.76.07,1.15.05.76-.04,1.52-.17,2.25-.37,1.86-.51,1.07-3.41-.8-2.89h0Z"/><path class="cls-1" d="m210.24,317.1c1.93,0,1.93-3,0-3s-1.93,3,0,3h0Z"/><path class="cls-1" d="m210.83,316.59c1.93,0,1.93-3,0-3s-1.93,3,0,3h0Z"/><path class="cls-1" d="m221.43,320.42c.03-.05.06-.11.09-.16.1-.18-.01.05-.07.08.09-.04.19-.2.26-.26.05-.04.09-.08.14-.12.02-.02.27-.21.07-.06-.19.14.02-.01.06-.04.06-.04.12-.09.18-.13.49-.37.98-.74,1.47-1.1.98-.73,1.98-1.44,2.98-2.14.33-.23.58-.5.69-.9.1-.36.05-.84-.15-1.16-.41-.64-1.36-1.02-2.05-.54-1.06.74-2.12,1.5-3.16,2.27-.51.38-1.01.75-1.51,1.14-.61.46-1.22.91-1.59,1.61s-.2,1.66.54,2.05c.69.37,1.66.2,2.05-.54h0Z"/><path class="cls-1" d="m202.44,328.18c1.71-.77,3.2-1.87,4.78-2.86,1.75-1.09,3.62-1.93,5.5-2.76s3.86-1.72,5.79-2.59c1.77-.8,3.61-1.52,5.21-2.65s.07-3.71-1.51-2.59-3.31,1.79-5.02,2.56c-1.99.9-3.98,1.79-5.98,2.68-1.82.81-3.65,1.61-5.34,2.66s-3.18,2.16-4.94,2.95-.23,3.38,1.51,2.59h0Z"/><path class="cls-1" d="m224.43,315.87l.04-2.27c.01-.73.12-1.55-.06-2.26-.45-1.85-2.88-2.09-4.37-1.54-1.32.49-2.53,1.36-3.68,2.15-1.21.83-2.59,1.65-3.11,3.09-.27.75.31,1.66,1.05,1.85l-.22-.08-.54-.54c.08.13.07.09-.04-.12-.03-.21-.03-.21,0,0,.01.18.03.36.04.54.02.39.02.77,0,1.16-.05,1.29,1.68,1.99,2.56,1.06s1.78-1.88,2.67-2.81c.18-.19.37-.38.56-.56.05-.05.35-.28.1-.1.1-.08.21-.15.33-.21.07-.04.41-.15.11-.06.12-.04.25-.06.37-.1.11-.02.1-.02-.02,0,.08,0,.15-.01.23-.02.18-.01.36-.01.54-.02l-1.3-2.26c-.05.07-.09.15-.14.22,0,0-.23.31-.11.16.1-.13-.07.08-.09.1-.06.07-.11.13-.17.2-.26.29-.55.55-.85.8-.17.15.18-.12,0,0-.07.05-.14.1-.21.15-.16.11-.33.21-.5.31-.15.09-.3.17-.46.24,0,0-.36.15-.18.08s-.19.07-.18.07c-.71.26-1.18.87-1.07,1.65.09.66.73,1.4,1.47,1.3,1.71-.22,3.41-.45,5.12-.7.78-.11,1.27-1.14,1.05-1.85-.28-.85-1.01-1.17-1.85-1.05-.76.11-1.52.21-2.28.32-.16.02-.33.04-.49.07-.19.03-.22.03-.09.01-.11.01-.22.03-.33.04-.38.05-.76.1-1.14.15l.4,2.95c1.95-.71,3.56-1.97,4.69-3.71.62-.95-.19-2.28-1.3-2.26-.88.02-1.72.11-2.52.49-.58.28-1.09.72-1.55,1.17-1.01,1-1.97,2.06-2.95,3.09l2.56,1.06c.05-1.3.18-3.46-1.44-3.85l1.05,1.85c-.14.38.14-.17-.09.14.06-.08.14-.15.21-.22s.16-.14.23-.21c.32-.27-.26.19.13-.11.43-.32.86-.64,1.3-.94.89-.61,1.8-1.21,2.75-1.72.03-.02.36-.18.2-.11s.18-.06.22-.07c.02,0,.46-.08.21-.06.13,0,.26,0,.39,0,.19-.01-.13-.02.1.02.26.04-.14-.14.07.02-.12-.1-.38-.51-.37-.5-.02-.11-.02-.09-.01.07v.16c-.02,1.19-.04,2.38-.06,3.56-.01.78.7,1.54,1.5,1.5s1.49-.66,1.5-1.5h0Z"/><path class="cls-1" d="m224.47,318.46c1.04-.65,2.13-1.14,3.31-1.48s2.35-.42,3.49-.77c1.32-.4,2.3-1.24,2.81-2.54s.73-2.7-.18-3.8c-.81-.97-1.84-1.82-2.82-2.62-1.11-.91-2.26-1.63-3.73-1.75s-2.83.3-4.19.6-2.82.63-4.23.95c-1.88.42-1.09,3.32.8,2.89,1.19-.27,2.38-.53,3.57-.8,1.08-.24,2.2-.61,3.31-.66.95-.04,1.63.29,2.35.88.83.67,1.62,1.4,2.37,2.15.14.14.34.49.23.15,0-.24-.02-.23-.05.03-.02.1-.04.2-.06.3-.06.28-.13.65-.3.89-.42.58-1.45.6-2.09.71-2.15.38-4.25,1.11-6.11,2.27-1.63,1.02-.13,3.62,1.51,2.59h0Z"/><path class="cls-1" d="m225.97,311.74c.12-1.01-.14-2.05-.62-2.94l-1.3,2.26c-.24,0-.44-.08-.59-.25.09.1.1.1.02.01-.06-.05-.1-.12-.12-.2.03.15.04.18.02.07-.02-.17,0,.3,0,.35,0,.16,0,.32,0,.47,0,.64-.04,1.28-.02,1.92.04.95.57,1.73,1.47,2.05.61.22,1.26.15,1.88.03.69-.13,1.04-.82,1.1-1.45.02-.2.04-.4.07-.59-.04.29.03-.18.03-.19.06-.34.12-.69.2-1.03.15-.68.34-1.35.57-2.01.17-.49-.02-1.11-.39-1.46-.63-.61-1.49-1.13-2.39-1.16-.76-.03-1.41.49-1.65,1.19-.18.53-.05,1.11.24,1.57s.73.73,1.14,1.04c.31.24.63.46.95.68.28.19.57.38.86.56.16.1.32.19.47.28.07.05.15.09.22.14-.23-.16.09.08-.05-.05-.11-.11,0-.01.02.04-.03-.12-.08-.19-.07-.32.02-.32.32-.7.64-.77.51-.11,1.1.16,1.26.74.03.11,0,.21.02.31.03.3.02-.18-.02.07-.03.2.04-.07.07-.13.36-.68.69-1.35.81-2.12.09-.57.15-1.15-.2-1.66-.5-.74-1.41-.98-2.21-.57-.53.27-.86.79-.93,1.37-.09.66.21,1.22.65,1.69.6.65,1.26,1.27,1.88,1.9.4.41.8.93,1.38,1.08.79.21,1.46-.08,1.94-.72.33-.44.22-1.07,0-1.51l-.02-.05c-.35-.71-1.4-.96-2.05-.54-.72.47-.91,1.3-.54,2.05l.02.05v-1.51l-.03.04.9-.69c1.02.43,1.34.47.96.13-.05-.05-.11-.11-.16-.16-.11-.11-.22-.22-.33-.33-.24-.24-.47-.47-.71-.71-.22-.22-.43-.44-.65-.66-.11-.11-.22-.22-.33-.33-.06-.06-.13-.13-.19-.19.07.08.14.17.19.27v.8l-.47.62-.76.2h.08c-.25-.07-.5-.14-.76-.21l.08.04-.54-.54c-.13-.19-.16-.38-.11-.59l-.02.13c-.03.13-.06.26-.09.39s-.08.26-.13.38c.12-.29-.04.07-.08.13-.3.56-.62,1.13-.62,1.79,0,.88.58,1.71,1.45,1.95s1.79-.16,2.27-.89.44-1.59.07-2.33c-.31-.61-.85-1.03-1.43-1.38-.47-.29-.94-.58-1.4-.9-.24-.17-.47-.34-.71-.51-.08-.06-.08-.06.01.01-.06-.04-.11-.09-.17-.14-.05-.03-.09-.07-.13-.11.24.25.31.57.23.96l-.39.66.06-.06-.66.39c-.11.03-.78-.08-.33.06.19.05-.26-.16.04.03.07.04.14.09.21.13-.25-.15.02.03.08.09l-.39-1.46c-.51,1.5-.81,3.05-.97,4.63l1.1-1.45c-.31.06.3,0,0,0-.01,0-.31,0-.31,0,.23.04.27.04.11,0l.19.07c.21.12.35.29.42.51l.03.16c-.05-.07,0-.34,0-.44,0-.16,0-.32,0-.47,0-.34,0-.69.01-1.03,0-.73.01-1.47-.34-2.14-.4-.76-1.14-1.18-1.99-1.24-1.18-.08-1.81,1.32-1.3,2.26.04.08.09.16.12.24-.06-.16-.06-.15,0,.01.04.15.07.3.12.45.02.11.02.09,0-.07,0,.09.01.18.01.27,0,.18-.01.35-.03.53-.1.78.76,1.53,1.5,1.5.89-.04,1.4-.66,1.5-1.5h0Z"/><path class="cls-1" d="m235.64,314.31c1.59.29,3.08.95,4.37,1.93.16.12.42.03.51-.13.11-.19.03-.39-.13-.51-1.33-1.01-2.9-1.71-4.55-2.01-.2-.04-.4.05-.46.26-.05.18.06.42.26.46h0Z"/><path class="cls-1" d="m235.02,316.58c3.86,0,3.87-6,0-6s-3.87,6,0,6h0Z"/><path class="cls-1" d="m237.88,312.71c-.65-1.93-1.06-4.42-2.92-5.55-1.69-1.03-3.7-1.47-5.64-1.64v6c.69,0,1.39.04,2.08.1.26.02.52.05.78.08.35.04.34.04-.02,0,.17.02.34.05.51.08,1.24.2,2.46.49,3.66.87.29.09.57.19.85.28.32.12.31.12-.03-.02.14.07.27.15.4.24-.29-.23-.35-.28-.18-.14.08.07.17.14.25.21.25.22.5.44.74.67.92.86,1.78,1.77,2.59,2.72,1.02,1.2,3.21,1.13,4.24,0,1.17-1.28,1.09-2.96,0-4.24-.87-1.02-1.79-1.99-2.77-2.89-.58-.53-1.19-1.08-1.84-1.51-.72-.48-1.58-.76-2.4-1.03-2.84-.92-5.86-1.37-8.85-1.41-1.57-.02-3.07,1.39-3,3,.08,1.75,1.32,2.85,3,3,.35.04.33.03-.07-.02.16.02.32.05.48.09.32.06.64.14.95.24.15.05.58.13.7.24-.34-.15-.35-.15-.04-.01.15.07.3.14.44.22.43.25.24.04-.56-.63-.18-.44-.2-.47-.07-.1.07.26.17.51.26.76l.68,2.02c.5,1.48,2.09,2.61,3.69,2.1,1.47-.48,2.63-2.1,2.1-3.69h0Z"/><path class="cls-1" d="m236.76,316.8c-.14-.05-.54-.29-.21-.08.13.08.26.17.39.24.32.17-.44-.38-.16-.14.09.08.19.16.29.24.42.37.82.77,1.23,1.14,1.07.97,2.2,1.86,3.35,2.73,1.98,1.5,4.07,2.85,6.15,4.2,1.32.85,3.37.31,4.1-1.08.79-1.49.33-3.19-1.08-4.1-2.15-1.39-4.28-2.79-6.32-4.33-.33-.25.42.33.1.07-.11-.09-.23-.18-.34-.27-.25-.2-.5-.41-.75-.62-.49-.42-.98-.85-1.45-1.29-1.13-1.06-2.24-1.96-3.71-2.51s-3.35.62-3.69,2.1c-.39,1.71.52,3.09,2.1,3.69h0Z"/><path class="cls-1" d="m251.56,318.24c-.61-.79-1.2-1.61-1.89-2.33s-1.56-1.29-2.38-1.9l.61.47c-.81-.63-1.49-1.42-2.4-1.91-.7-.38-1.53-.52-2.31-.3-.7.19-1.45.73-1.79,1.38-.37.7-.55,1.54-.3,2.31.24.73.69,1.42,1.38,1.79.19.1.37.22.55.36l-.61-.47c.36.28.68.61,1.02.9.55.46,1.15.85,1.72,1.28l-.61-.47c.8.62,1.44,1.4,2.05,2.19l-.47-.61c.09.11.17.23.26.34.19.35.45.63.77.84.29.27.63.44,1.02.54.72.2,1.67.11,2.31-.3s1.2-1.03,1.38-1.79l.11-.8c0-.54-.14-1.05-.41-1.51h0Z"/><path class="cls-1" d="m199.99,332.95c.04-.16.1-.31.16-.46l-.3.72c.33-.76.87-1.4,1.37-2.06.54-.72,1.08-1.44,1.62-2.16.22-.34.34-.72.36-1.12.09-.4.07-.8-.05-1.2-.19-.7-.73-1.45-1.38-1.79-.7-.37-1.54-.55-2.31-.3l-.72.3c-.45.27-.81.63-1.08,1.08-.61.81-1.21,1.61-1.82,2.42-.69.92-1.32,1.84-1.63,2.97-.21.75-.09,1.64.3,2.31.36.62,1.08,1.22,1.79,1.38.77.17,1.63.14,2.31-.3s1.16-1.02,1.38-1.79h0Z"/><path class="cls-1" d="m202.94,337.72c5.38-5.95,11.19-11.49,17.39-16.57,1.22-1,1.11-3.22,0-4.24-1.3-1.19-2.94-1.07-4.24,0-6.2,5.08-12.02,10.62-17.39,16.57-1.05,1.16-1.24,3.11,0,4.24,1.15,1.05,3.12,1.24,4.24,0h0Z"/><path class="cls-1" d="m205.75,335.45c.55-.82,1.12-1.64,1.72-2.42l-.47.61c.76-.97,1.58-1.87,2.55-2.63l-.61.47c.47-.35.96-.66,1.48-.93l-3.64-4.71c-1.11.94-2.14,1.96-3.1,3.04l4.71,3.64c.18-.41.4-.79.67-1.15l-.47.61c.43-.55.93-1.01,1.48-1.44l-.61.47c1.7-1.31,3.67-2.31,5.12-3.93,1.04-1.17,1.24-3.1,0-4.24-1.14-1.05-3.13-1.25-4.24,0-.39.44-.83.83-1.29,1.19l.61-.47c-2.3,1.77-5.24,3.12-6.44,5.94-.32.74-.57,1.5-.3,2.31.2.63.55,1.15,1.08,1.56,1.12.86,2.95.89,3.94-.23s2-2.1,3.1-3.04c.53-.45.91-1.43.88-2.12s-.23-1.28-.64-1.82c-.94-1.22-2.52-1.46-3.87-.77-3,1.52-4.99,4.34-6.83,7.05-.88,1.3-.29,3.38,1.08,4.1,1.52.8,3.16.31,4.1-1.08h0Z"/><path class="cls-1" d="m262.25,339.1c3.86,0,3.87-6,0-6s-3.87,6,0,6h0Z"/><path class="cls-1" d="m254.96,334.6c3.86,0,3.87-6,0-6s-3.87,6,0,6h0Z"/><path class="cls-1" d="m253.16,334.32l.08.03-.72-.3c.4.17.75.4,1.1.66l-.61-.47c.67.53,1.29,1.12,1.92,1.68.68.61,1.36,1.21,2.04,1.82.6.53,1.31.88,2.12.88.74,0,1.61-.33,2.12-.88s.91-1.32.88-2.12-.29-1.59-.88-2.12c-.91-.81-1.81-1.62-2.72-2.43-.4-.36-.79-.72-1.21-1.05-.37-.3-.76-.61-1.17-.87s-.9-.44-1.37-.63c-.4-.13-.8-.14-1.2-.05-.4.02-.77.14-1.12.36-.62.36-1.22,1.08-1.38,1.79-.17.77-.14,1.63.3,2.31l.47.61c.37.37.82.63,1.32.77h0Z"/><path class="cls-1" d="m259.04,332.69h-.06c.27.03.53.06.8.1-.12-.02-.23-.05-.34-.09l.72.3c-.47-.2-.88-.55-1.29-.84-.44-.32-.89-.63-1.32-.96l.61.47c-.12-.1-.24-.2-.34-.32l.47.61c-.05-.07-.09-.14-.13-.22l.3.72s-.03-.09-.04-.14l.11.8v-.05c0-.41-.08-.8-.26-1.16-.12-.37-.33-.69-.62-.97-.27-.29-.59-.5-.97-.62-.36-.19-.74-.27-1.16-.26-.78.03-1.58.29-2.12.88l-.47.61c-.27.47-.41.97-.41,1.51.04.33.05.68.15.99.07.21.23.64.4.89.22.34.48.68.8.94.52.42,1.07.81,1.61,1.2.35.26.7.52,1.06.76.16.11.33.22.51.31.3.14.62.29.94.39.34.1.71.12,1.06.16.41.02.8-.07,1.16-.26.37-.12.69-.33.97-.62.29-.27.5-.59.62-.97.19-.36.27-.74.26-1.16-.03-.78-.29-1.58-.88-2.12l-.61-.47c-.47-.27-.97-.41-1.51-.41h0Z"/><path class="cls-1" d="m257.64,338.63c1.01.88,1.93,1.86,2.76,2.92l-.47-.61s.07.09.1.13c.19.35.45.63.77.84.29.27.63.44,1.02.54.4.13.8.14,1.2.05.4-.02.77-.14,1.12-.36.64-.41,1.2-1.03,1.38-1.79l.11-.8c0-.54-.14-1.05-.41-1.51-.57-.75-1.15-1.49-1.8-2.18-.48-.52-.99-1.01-1.53-1.47-.27-.29-.59-.5-.97-.62-.36-.19-.74-.27-1.16-.26-.41-.02-.8.07-1.16.26-.37.12-.69.33-.97.62-.52.57-.91,1.32-.88,2.12l.11.8c.14.51.4.95.77,1.32h0Z"/><path class="cls-1" d="m267.19,336.59c.09-1.14.07-2.28-.07-3.42-.06-.48-.08-.98-.21-1.44-.18-.66-.51-1.27-.99-1.77s-1.1-.77-1.64-1.18l.61.47c-.18-.15-.34-.31-.49-.49l.47.61c-.12-.16-.23-.32-.32-.5-.35-.65-1.09-1.19-1.79-1.38s-1.67-.11-2.31.3c-1.41.91-1.87,2.62-1.08,4.1.29.55.69,1.09,1.17,1.5.5.44,1.01.72,1.55,1.09l-.61-.47c.08.06.14.12.21.19l-.47-.61c.06.08.11.16.15.26l-.3-.72c.07.19.11.39.14.59l-.11-.8c.16,1.21.2,2.44.1,3.66-.06.73.37,1.62.88,2.12s1.37.91,2.12.88,1.58-.29,2.12-.88.82-1.29.88-2.12h0Z"/><path class="cls-1" d="m248.2,322.43l3.04,3.2c1.07,1.13,2.15,2.24,3.49,3.05.66.4,1.57.51,2.31.3.7-.19,1.45-.73,1.79-1.38.37-.7.55-1.54.3-2.31s-.69-1.38-1.38-1.79c-.24-.14-.46-.3-.68-.46l.61.47c-.94-.73-1.74-1.63-2.56-2.5l-2.68-2.83c-.52-.55-1.37-.88-2.12-.88s-1.61.33-2.12.88-.91,1.32-.88,2.12.31,1.53.88,2.12h0Z"/><path class="cls-1" d="m253.03,326.84c.2.12.39.25.58.39l-.61-.47c.83.64,1.48,1.47,2.2,2.22.95.99,2.03,1.86,3.16,2.64.61.42,1.62.49,2.31.3s1.45-.73,1.79-1.38c.37-.7.55-1.54.3-2.31l-.3-.72c-.27-.45-.63-.81-1.08-1.08-.27-.18-.53-.38-.79-.57l.61.47c-.86-.68-1.64-1.44-2.37-2.25-.83-.92-1.71-1.79-2.79-2.43-.67-.39-1.56-.51-2.31-.3-.7.19-1.45.73-1.79,1.38-.37.7-.55,1.54-.3,2.31s.69,1.39,1.38,1.79h0Z"/><path class="cls-1" d="m271.62,335.52c-.08-.05-.23-.1-.29-.18.03.04.22.18.07.05-.04-.03-.07-.06-.1-.09-.15-.14-.29-.3-.42-.46-.04-.04-.07-.09-.11-.14.22.28.08.1.04.04-.06-.08-.12-.15-.18-.23-.18-.24-.36-.48-.56-.7-.18-.19-.37-.36-.58-.52-.13-.1-.26-.2-.39-.29-.05-.04-.11-.1-.17-.12.08.03.18.15.04.03-.19-.16-.37-.33-.54-.51-.08-.09-.16-.19-.24-.28-.15-.19.15.21.01.01-.04-.06-.08-.11-.12-.17-.33-.49-1.01-.75-1.54-.4-.48.31-.76,1.02-.4,1.54.33.49.71.95,1.16,1.33.26.22.54.43.82.63.17.13-.18-.16-.01,0,.04.03.08.07.12.1.08.08.16.16.24.25.07.08.14.16.21.24.04.05.07.09.11.14-.22-.28-.08-.1-.03-.04.18.24.36.48.55.71.33.4.72.77,1.17,1.01.52.28,1.25.15,1.54-.4s.15-1.24-.4-1.54h0Z"/><path class="cls-1" d="m271.2,337.67c1.45,0,1.45-2.25,0-2.25s-1.45,2.25,0,2.25h0Z"/><path class="cls-1" d="m264.15,342.44c-.04.08-.03.06.03-.07.03-.07.07-.15.11-.22.07-.14.16-.29.24-.43.19-.31.26-.4.49-.65.46-.49.85-.76,1.39-1.13.62-.43,1.24-.85,1.86-1.28.29-.2.58-.41.89-.6.14-.09.28-.17.42-.24.12-.06.14-.07.06-.03.08-.03.15-.05.23-.07.46-.13.85-.59.83-1.08-.02-.47-.33-.99-.83-1.08-.11-.02-.21-.05-.32-.08.19.06-.09-.04-.12-.06,0,0-.29-.19-.13-.07-.09-.07-.17-.14-.25-.22-.16-.16-.31-.33-.45-.5.09.12-.03-.04-.06-.09-.08-.11-.15-.21-.23-.32-.26-.38-.65-.6-1.12-.54-.4.05-.87.37-.94.81-.11.66-.16,1.32-.11,1.99.05.58.48,1.15,1.12,1.12.57-.03,1.18-.5,1.12-1.12-.04-.46-.04-.99.03-1.39l-2.06.27c.72,1.03,1.58,2.12,2.89,2.37v-2.17c-.78.23-1.41.68-2.07,1.14-.71.49-1.42.97-2.13,1.47-.64.45-1.29.92-1.8,1.52-.56.66-.96,1.37-1.29,2.17-.22.55.24,1.26.79,1.38.65.15,1.15-.2,1.38-.79h0Z"/><path class="cls-1" d="m189.86,319.51c.14-4.6.05-9.2-.26-13.79-.07-.96-1.57-.97-1.5,0,.32,4.59.4,9.19.26,13.79-.03.97,1.47.96,1.5,0h0Z"/><path class="cls-1" d="m269.45,372.64c.55.45,1.19.78,1.9.91.58.11,1.36.1,1.51-.61s-.59-1.22-1.15-1.48c-.61-.29-1.28-.45-1.96-.44s-1.34.24-1.51.98c-.14.61.07,1.24.46,1.71.43.52,1.08.81,1.73.94.54.11,1.2.22,1.7-.09.61-.38.5-1.14.08-1.61s-1.12-.78-1.73-.94-1.35-.24-1.96-.04-1.01.8-.83,1.47.82,1.07,1.4,1.35,1.42.65,2.06.35c.51-.24.72-.86.61-1.39-.13-.62-.68-1.06-1.22-1.31s-1.43-.25-1.48.53c-.02.36.19.74.37,1.04.16.27.36.52.58.75.96.98,2.34,1.45,3.69,1.27.2-.03.31-.28.26-.46-.06-.22-.26-.29-.46-.26-1.48.2-3.21-.74-3.68-2.2-.02-.08-.02-.06-.01-.07.04-.02.11,0,.15,0,.19.03.36.13.51.23.29.18.59.46.56.83-.07.93-1.67.03-2.05-.22-.28-.18-.75-.57-.55-.97.17-.31.69-.3.99-.3.47,0,.95.11,1.38.3.34.14.87.39,1,.77.23.66-1.62.15-1.83.06-.38-.17-.71-.43-.9-.81-.14-.28-.23-.8.06-1.02.17-.13.46-.12.67-.12.26,0,.51.02.76.08.48.11,1,.3,1.39.63.09.08.28.27.13.37s-.51,0-.66-.04c-.52-.12-1.01-.35-1.43-.69-.37-.3-.9.22-.53.53h0Z"/><path class="cls-1" d="m270.64,376.17h1.19c.41,0,.8-.08,1.16-.27.37-.12.69-.33.97-.62l.47-.61c.22-.34.34-.72.36-1.12.07-.27.07-.53,0-.8-.02-.4-.14-.77-.36-1.12l-.47-.61c-.37-.37-.82-.63-1.32-.77-.87-.31-1.75-.26-2.64-.11s-1.58.6-2.23,1.15c-.32.27-.59.62-.8.98-.47.83-.66,1.85-.4,2.78.18.64.51,1.21.98,1.68.53.52,1.06.76,1.75,1.01.22.08.45.1.69.13.22.03.44.08.67.06.69-.06,1.11-.13,1.71-.46.3-.16.57-.38.81-.62.44-.44.8-1.06.94-1.67.06-.25.09-.59.12-.85,0-.05.01-.1.01-.15,0-.16-.04-.35-.06-.5-.02-.16-.03-.38-.08-.55-.2-.72-.52-1.17-.98-1.73-.29-.35-.68-.61-1.04-.89-.17-.13-.35-.26-.54-.35-.31-.15-.63-.3-.96-.39-.66-.17-1.19-.13-1.85-.02-1.01.18-2.02,1.02-2.47,1.93-.39.79-.62,1.55-.66,2.44-.03.66.18,1.31.49,1.87.25.46.73.9,1.18,1.17.53.31,1.1.42,1.7.45.88.04,1.84-.42,2.43-1.04.44-.46.64-.89.86-1.47.04-.12.07-.23.09-.35.16-1,.24-1.92-.01-2.92-.27-1.09-.99-2.05-1.94-2.63-.79-.49-1.8-.65-2.7-.39s-1.66.89-2.07,1.7-.72,1.75-.66,2.69c.05.8.2,1.38.57,2.09.16.3.4.58.62.83.07.08.15.16.23.23.55.46,1.09.84,1.8,1,.16.04.35.05.5.07.17.02.37.07.56.06.16,0,.36-.04.5-.06.17-.02.38-.04.56-.09.15-.05.32-.13.46-.19.16-.07.35-.13.5-.22.3-.17.57-.4.82-.63.34-.3.61-.69.85-1.08s.42-.87.59-1.31c.1-.27.18-.54.25-.82h-5.79c.02.06.03.12.05.19.09.39.27.73.54,1.02.21.33.49.58.84.77.34.22.72.34,1.12.36.4.09.8.07,1.2-.05.73-.23,1.43-.68,1.79-1.38s.5-1.5.3-2.31c-.02-.06-.03-.12-.05-.19l-.3-.72c-.19-.35-.45-.63-.77-.84-.19-.19-.41-.31-.66-.39-.36-.19-.74-.27-1.16-.26l-.8.11-.72.3c-.35.19-.63.45-.84.77-.27.29-.44.63-.54,1.02-.07.32-.17.64-.3.95l.3-.72c-.1.25-.23.48-.39.69l.47-.61c-.09.11-.19.22-.31.31l.61-.47c-.09.06-.18.12-.27.16l.72-.3c-.08.03-.17.05-.26.07l.8-.11c-.09,0-.17,0-.26,0l.8.11c-.11-.02-.2-.05-.3-.09l.72.3c-.1-.05-.19-.1-.28-.16l.61.47c-.1-.08-.19-.17-.27-.27l.47.61c-.06-.09-.12-.18-.16-.28l.3.72c-.05-.14-.09-.27-.11-.42l.11.8c-.02-.17-.01-.34,0-.51l-.11.8c.03-.21.09-.42.18-.62l-.3.72c.05-.11.1-.21.17-.31l-.47.61s.05-.05.07-.08l-.61.47s.06-.04.09-.05l-.72.3h.05c-.27.02-.53.06-.8.09h.06c-.27-.04-.53-.08-.8-.11.04,0,.08.01.12.03l-.72-.3c.09.04.17.08.25.14l-.61-.47c.07.06.14.12.2.2l-.47-.61c.08.11.14.22.2.34l-.3-.72c.06.15.1.31.12.47l-.11-.8c.04.36.01.73-.03,1.09l.11-.8c-.02.12-.04.24-.09.35l.3-.72s-.04.07-.06.11l.47-.61s-.07.08-.11.11l.61-.47s-.06.04-.09.05l.72-.3s-.09.03-.15.04l.8-.11s-.07,0-.1,0l.8.11h-.05c.24.09.48.19.72.29-.03-.01-.06-.03-.08-.05l.61.47s-.04-.04-.06-.06l.47.61s-.03-.05-.04-.08l.3.72s-.03-.09-.03-.13l.11.8c0-.08,0-.16,0-.25l-.11.8c.03-.25.1-.5.2-.73l-.3.72c.05-.12.11-.24.19-.34l-.47.61c.05-.06.1-.11.16-.16l-.61.47c.05-.04.1-.07.16-.09l-.72.3c.07-.03.13-.04.2-.05l-.8.11c.07,0,.12,0,.19,0l-.8-.11c.09.02.17.04.25.07l-.72-.3c.22.1.41.24.6.38l-.61-.47c.16.13.31.26.43.42l-.47-.61c.07.1.13.2.18.31l-.3-.72c.03.08.05.16.06.24l-.11-.8c0,.09,0,.17,0,.25l.11-.8c-.01.07-.03.13-.05.19l.3-.72c-.03.06-.06.11-.09.17l.47-.61s-.06.07-.1.1l.61-.47s-.08.06-.13.08l.72-.3c-.06.02-.11.04-.17.05l.8-.11c-.1.01-.2.01-.3,0l.8.11c-.14-.02-.27-.06-.39-.12l.72.3c-.1-.05-.19-.1-.28-.17l.61.47c-.05-.05-.1-.1-.15-.15l.47.61s-.05-.09-.08-.14l.3.72s-.02-.07-.03-.1l.11.8c0-.06,0-.12,0-.18l-.11.8c.01-.06.03-.12.05-.18l-.3.72c.04-.1.1-.18.16-.27l-.47.61c.08-.09.16-.18.26-.25l-.61.47c.11-.08.23-.15.36-.21l-.72.3c.16-.07.33-.11.5-.14l-.8.11c.19-.02.39-.02.58,0l-.8-.11c.16.02.31.06.46.11l.8-5.89h-1.19c-.77.02-1.57.34-2.12.89-.29.27-.5.59-.62.97-.19.36-.27.74-.26,1.16.03.78.29,1.58.88,2.12s1.31.89,2.12.88h0Z"/><path class="cls-1" d="m280.3,375.81c-.3-1.35-1.09-2.71-2.14-3.62-.7-.6-1.46-1.13-2.37-1.35-1.33-.32-2.73.06-3.68,1.06-1.25,1.32-1.81,3.7-.86,5.32.78,1.34,2.36,1.9,3.84,1.5,1.06-.28,1.96-1.16,2.45-2.12.96-1.88,1.12-4.21-.46-5.81-1.17-1.18-3.23-1.71-4.85-1.55-.93.09-1.76.25-2.57.74-1.35.81-2.04,2.46-1.63,3.99.38,1.41,1.7,2.56,3.2,2.54,1.57-.02,2.82-1.02,3.32-2.49.84-2.47-1.49-4.62-3.61-5.36-1.17-.41-2.46-.22-3.53.35s-1.56,1.67-2.01,2.76l.3-.72c-.04.08-.07.17-.12.25-.16.25-.09.16.22-.29l5.01,2.92c.24-1.01.17-2.1-.38-3.01s-1.33-1.44-2.32-1.85c-.67-.27-1.71-.05-2.31.3s-1.22,1.08-1.38,1.79c-.17.77-.14,1.63.3,2.31s1.03,1.07,1.79,1.38l.12.05-.72-.3c-.23-.13-.41-.3-.55-.52-.17-.24-.2-.27-.09-.08l-.3-.72c.04.08.06.17.07.25l-.11-.8c.01.09.01.17,0,.26l.11-.8-.03.13c-.29,1.25.18,2.76,1.38,3.39s2.67.51,3.64-.47c.63-.63.91-1.33,1.24-2.14l-.3.72s.19-.33.18-.37c.03.21-.96.82-.54.64l-.72.3c.09-.03.19-.05.28-.06l-.8.11c.1-.01.2-.01.3,0l-.8-.11c.16.02.29.06.45.11l-.72-.3c.16.07.63.24.71.41-.02-.04-.53-.45-.22-.17.26.24.25.42-.07-.14l-.3-.72.05.14-.11-.8c.02.08.02.16,0,.23l.11-.8-.04.11.3-.72.86-.82.72-.3-.1.04.8-.11h-.11c.27.04.53.07.8.11l-.1-.03.72.3-.08-.06,1.08,1.08c-.05-.05-.09-.11-.11-.18l.3.72-.02-.11.11.8v-.11c-.04.27-.07.53-.11.8l.02-.11-.3.72c.13-.26.02-.17-.33.29-.45.37-.53.48-.24.32l-.72.3c.26-.09.52-.15.8-.19l-.8.11c.35-.03.68-.03,1.03,0l-.8-.11c.34.05.67.14.99.26l-.72-.3s.46.2.45.22c-.05.14-.84-1.12-.55-.52l-.3-.72c.04.1.06.2.07.3l-.11-.8c0,.11,0,.21,0,.32l.11-.8c-.05.36-.15.7-.28,1.04l.3-.72s-.2.39-.2.39c-.09-.17,1.01-.85.56-.6l.72-.3-.13.04.8-.11h-.13c.5.13,1.01.27,1.51.4l.87.88.3.72-.03-.1.11.8c-.02-.12-.02-.22,0-.35l-.11.8c.04-.26.11-.51.2-.75l-.3.72c.04-.1.11-.19.15-.29.08-.13.04-.07-.12.16-.14.23-.33.41-.57.54l-.72.3c.07-.04.15-.06.23-.07l-.8.11h.17c-.27-.04-.53-.08-.8-.11.11,0,.22.04.33.08l-.72-.3s.56.32.56.32c-.04.04-.55-.5-.25-.18.09.09.18.17.27.27.08.08.31.38,0-.01s-.08-.09-.02,0c.12.19.22.39.31.6l-.3-.72c.09.24.17.47.22.72.34,1.53,2.2,2.58,3.69,2.1,1.61-.52,2.46-2.05,2.1-3.69h0Z"/><path class="cls-1" d="m266.45,370.1c-.69.69-1.42,1.35-2.19,1.95l.23-.18c-.18.14-.36.26-.56.35l.27-.11c-.06.03-.13.05-.19.07l1.27,1.65c.13-.22.28-.43.44-.63l-.18.23c.59-.76,1.31-1.4,2.02-2.03.2-.18.34-.53.33-.8s-.09-.48-.24-.68c-.34-.44-.96-.58-1.45-.29-.41.24-.79.62-.99,1.06-.13.29-.2.55-.11.87.07.26.27.54.52.67.26.14.58.21.87.11.26-.08.56-.26.67-.52.05-.11.11-.21.18-.31l-.18.23c.08-.09.16-.18.25-.25l-.23.18s.1-.07.15-.1l-1.36-1.77c-.98.87-1.94,1.77-2.63,2.89-.24.38-.18.9.09,1.25s.75.53,1.18.4c.77-.23,1.37-.79,1.97-1.3.51-.43,1-.89,1.47-1.36.42-.42.45-1.18,0-1.59s-1.15-.44-1.59,0h0Z"/><path class="cls-1" d="m266.31,367.17c0,.54.07,1.15.33,1.63.3.57,1,.8,1.55.44.47-.3.65-.92.64-1.45-.01-.61-.39-1.14-1-1.28-.26-.06-.55-.08-.8,0-.4.13-.6.5-.6.91,0,.5.27.97.65,1.28.46.37,1.02.49,1.6.4.48-.08.86-.31,1.24-.58.27-.19-.08,0-.06-.07,0,0,.31.21.33.22.23.17.45.33.68.5s.45.34.68.51c.1.08.25.19.33.25.05.05.11.1.14.16.19.36.69.47,1.03.27.36-.21.46-.67.27-1.03-.3-.56-.97-.93-1.47-1.3-.27-.2-.54-.4-.81-.6-.29-.22-.58-.41-.96-.46s-.69.08-.98.29c-.22.16-.41.29-.64.35-.15.04-.31.02-.4-.05.07.06-.05-.04-.06-.06-.07-.07.02.09-.05-.07.03.07,0,0-.01-.03.02.11,0-.07,0-.11l-.1.38.04-.07-.45.34c-.08.03.03-.02.08.02-.08-.02-.13-.07-.16-.14-.04-.09-.05-.09-.02,0,.05-.14-.03.18-.02.1,0-.03-.07.13-.02.12.17-.19.4-.18.67.05l-.04-.07c.03.07.03.05,0-.06-.02-.07-.04-.13-.05-.2-.05-.21-.06-.41-.06-.62,0-.97-1.5-.97-1.5,0h0Z"/><path class="cls-1" d="m186.97,393.7c.07,2.97-.22,5.92-.89,8.82h2.17c-.4-1.83-.25-3.86-.25-5.72,0-2.02.04-4.04.14-6.06.07-1.45-2.18-1.44-2.25,0-.23,4.74-.32,9.49-.26,14.24h2.25c-.41-3.8-.35-7.62-.28-11.43.03-1.45-2.21-1.45-2.25,0-.08,3.28-.16,6.56-.24,9.84h2.25c-.36-3.06-.49-6.14-.41-9.22.03-1.23-2.03-1.58-2.21-.3-.35,2.49-.66,4.98-.92,7.47-.06.61.56,1.12,1.12,1.12.66,0,1.06-.52,1.12-1.12.24-2.3.52-4.59.84-6.87l-2.21-.3c-.08,3.08.05,6.16.41,9.22.16,1.4,2.21,1.49,2.25,0,.08-3.28.16-6.56.24-9.84h-2.25c-.07,3.81-.14,7.63.28,11.43.15,1.4,2.27,1.48,2.25,0-.06-4.75.03-9.5.26-14.24h-2.25c-.1,2.11-.14,4.22-.14,6.34,0,1.99-.09,4.08.33,6.04.23,1.08,1.93,1.07,2.17,0,.71-3.09,1.04-6.25.97-9.42-.03-1.45-2.28-1.45-2.25,0h0Z"/><path class="cls-1" d="m190.1,397.61c0,3.26.2,6.51.63,9.74l.74-.1c-1.01-3.84-1.2-7.8-1.38-11.74-.02-.49-.7-.47-.75,0-.37,3.57-.08,7.16.85,10.62.13.47.82.27.72-.2-.68-3.27-1.14-6.58-1.4-9.92-.04-.48-.73-.49-.75,0-.17,3.56-.18,7.12-.03,10.68h.75c-.44-3.4-.47-6.84-.49-10.26h-.75c.26,3.71.72,7.4,1.38,11.05l.72-.2c-.76-3.16-1.07-6.38-.91-9.63l-.7.19c.69,1.35,1.13,2.79,1.56,4.24.12.39.77.34.74-.1-.27-3.15-.54-6.3-.8-9.46-.04-.47-.75-.49-.75,0,0,3.65,1.31,7.06,2.74,10.36.17.4.79.11.69-.29-.75-2.88-1.35-5.79-1.8-8.72-.07-.44-.7-.29-.74.1-.12,1.46.32,2.94.7,4.34.41,1.49.89,2.95,1.38,4.41l.69-.29c-.96-1.36-1.27-3.18-1.65-4.77-.41-1.73-.73-3.48-.98-5.24-.06-.43-.72-.3-.74.1-.15,3.43.07,6.85.64,10.23.07.41.79.32.74-.1-.29-2.43-.48-4.88-.59-7.33l-.74.1c.45,1.9.9,3.8,1.36,5.7l.69-.29c-.58-1.01-.74-2.23-.95-3.36-.24-1.29-.42-2.59-.55-3.89-.05-.47-.76-.49-.75,0,.08,2.96.79,5.83,1.58,8.67l.69-.29c-.89-1.96-1.39-4.09-1.97-6.16-.12-.41-.72-.32-.74.1-.06,1.88.26,3.72.6,5.56.09.47.81.27.72-.2-.33-1.77-.63-3.55-.57-5.36l-.74.1c.6,2.14,1.13,4.31,2.05,6.34.18.39.8.11.69-.29-.77-2.78-1.48-5.58-1.55-8.48h-.75c.14,1.37.33,2.74.58,4.09.22,1.2.4,2.47,1.02,3.54.22.37.78.12.69-.29-.45-1.9-.9-3.8-1.36-5.7-.1-.41-.75-.33-.74.1.1,2.45.3,4.89.59,7.33l.74-.1c-.56-3.32-.76-6.67-.61-10.03l-.74.1c.26,1.86.6,3.7,1.04,5.52.38,1.58.71,3.32,1.66,4.67.23.33.83.14.69-.29-.46-1.37-.91-2.74-1.3-4.13s-.88-2.93-.75-4.42l-.74.1c.45,2.94,1.05,5.85,1.8,8.72l.69-.29c-1.37-3.17-2.64-6.47-2.64-9.98h-.75c.27,3.15.54,6.3.8,9.46l.74-.1c-.45-1.51-.92-3.01-1.64-4.42-.18-.35-.68-.16-.7.19-.16,3.31.16,6.61.94,9.83.12.48.81.27.72-.2-.64-3.59-1.09-7.21-1.35-10.85-.03-.48-.75-.49-.75,0,.02,3.43.04,6.86.49,10.26.06.46.77.5.75,0-.15-3.56-.14-7.12.03-10.68h-.75c.26,3.4.74,6.78,1.43,10.12l.72-.2c-.92-3.4-1.19-6.92-.82-10.42h-.75c.18,4.01.39,8.04,1.41,11.94.1.4.79.33.74-.1-.43-3.23-.64-6.48-.63-9.74,0-.48-.75-.48-.75,0h0Z"/><path class="cls-1" d="m242.81,382.38c-3.53,1.3-7.27,1.09-10.86.11-3.37-.91-7.31-2.11-8.47-5.78-.89-2.83-.24-7.39,3.46-7.72,1.66-.15,3.3.98,4.44,2.08s2.06,2.53,2.47,4.11c.84,3.23-.91,6.9-4.25,7.77-1.87.49-1.08,3.38.8,2.89,4.12-1.07,6.95-5.27,6.66-9.48s-3.4-8.46-7.51-9.95c-4.8-1.73-9.05,2.29-9.45,6.95-.2,2.29.4,4.81,1.68,6.73s3.3,3.08,5.47,3.96c5.12,2.09,11.02,3.19,16.36,1.22,1.8-.66,1.02-3.56-.8-2.89h0Z"/><path class="cls-1" d="m231.32,374.11c-.14.19-.28.39-.42.57l1.64-2.13c-.95,1.2-2.03,2.25-3.23,3.19l2.13-1.64c-1.42,1.05-2.94,1.9-4.56,2.59l2.51-1.06c-2.23.91-4.56,1.49-6.95,1.81l2.79-.38c-3.03.38-6.09.35-9.11-.05l2.79.38c-1.16-.17-2.29-.42-3.39-.85l2.51,1.06c-.59-.26-1.13-.56-1.65-.94l2.13,1.64c-.41-.33-.76-.67-1.09-1.07l1.64,2.13c-.39-.52-.7-1.06-.97-1.66l1.06,2.51c-.29-.73-.48-1.47-.61-2.24l.38,2.79c-.13-1.02-.14-2.01-.02-3.03l-.38,2.79c.16-1.14.46-2.22.9-3.28l-1.06,2.51c.42-.93.93-1.79,1.54-2.61l-1.64,2.13c.64-.8,1.34-1.5,2.15-2.12l-2.13,1.64c.75-.54,1.53-.98,2.37-1.36l-2.51,1.06c.98-.39,1.97-.67,3.01-.83l-2.79.38c1.05-.13,2.07-.14,3.12-.04l-2.79-.38c1.05.14,2.04.4,3.02.78l-2.51-1.06c.49.22.95.46,1.39.76l-2.13-1.64c.31.26.56.5.81.82l-1.64-2.13c.14.2.26.41.37.64l-1.06-2.51c.24.58.39,1.16.49,1.78l-.38-2.79c.13,1.07.12,2.11-.01,3.18l.38-2.79c-.19,1.19-.53,2.33-.99,3.44l1.06-2.51c-.72,1.64-1.66,3.14-2.74,4.56l1.64-2.13c-1.51,1.91-3.22,3.65-5.14,5.14l2.13-1.64c-1.18.88-2.41,1.64-3.75,2.23l2.51-1.06c-1.1.45-2.21.77-3.39.94l2.79-.38c-.77.08-1.52.1-2.29.01l2.79.38c-.38-.07-.71-.16-1.08-.29l2.51,1.06c-.35-.16-.64-.33-.95-.56l2.13,1.64c-.18-.15-.33-.32-.47-.5l1.64,2.13c-.2-.3-.35-.57-.5-.9l1.06,2.51c-.11-.34-.19-.66-.25-1.02l.38,2.79c-.03-.36-.03-.7,0-1.06l-.38,2.79c.07-.51.2-.98.38-1.47l-1.06,2.51c.34-.77.76-1.45,1.27-2.12l-1.64,2.13c1.1-1.36,2.37-2.57,3.74-3.66l-2.13,1.64c1.8-1.39,3.75-2.53,5.84-3.42l-2.51,1.06c1.98-.81,4.03-1.37,6.15-1.68l-2.79.38c.87-.11,1.73-.19,2.6-.13l-2.79-.38c.41.06.78.14,1.17.29l-2.51-1.06c.28.13.52.26.77.43l-2.13-1.64c.31.24.58.5.83.8l-1.64-2.13c.3.41.54.82.74,1.29l-1.06-2.51c.27.7.43,1.4.53,2.14l-.38-2.79c.1.96.08,1.92-.05,2.88l.38-2.79c-.28,1.76-.76,3.44-1.44,5.09l1.06-2.51c-.8,1.84-1.83,3.54-3.04,5.13l1.64-2.13c-1.41,1.78-3.02,3.36-4.81,4.76l2.13-1.64c-2.02,1.54-4.2,2.81-6.53,3.81l2.51-1.06c-2.07.86-4.24,1.56-6.46,1.88l2.79-.38c-.78.09-1.55.11-2.33.04l2.79.38c-.53-.07-1.03-.19-1.54-.37l2.51,1.06c-.38-.17-.71-.36-1.04-.61l2.13,1.64c-.15-.13-.3-.27-.43-.43l1.64,2.13c-.21-.28-.36-.53-.51-.85l1.06,2.51c-.09-.22-.16-.44-.2-.68l.38,2.79c-.04-.36-.05-.67-.02-1.04l-.38,2.79c.08-.49.21-.93.4-1.38l-1.06,2.51c.28-.59.61-1.12,1.01-1.64l-1.64,2.13c.68-.83,1.45-1.53,2.29-2.2l-2.13,1.64c1.91-1.47,3.98-2.69,6.2-3.66l-2.51,1.06c1.97-.82,3.99-1.43,6.09-1.81l-2.79.38c.23-.06.46-.06.68,0l-5.3-1.43.23.13-2.13-1.64.15.19-2.7-4.63.08.23-.38-2.79c.03.18.02.37-.02.55l.38-2.79c-.04.2-.11.4-.2.58l1.06-2.51c-.09.18-.19.36-.32.52l1.64-2.13c-2.38,3.05-5.11,5.78-8.15,8.17l2.13-1.64c-3.27,2.53-6.83,4.62-10.64,6.24l2.51-1.06c-2.42,1.01-5.03,2.03-7.64,2.4l2.79-.38c-.27.03-.54.03-.82,0l2.79.38c-.25-.03-.5-.1-.73-.21l2.51,1.06c-.21-.1-.41-.22-.59-.37l2.13,1.64c-.18-.15-.35-.32-.5-.5l1.64,2.13c-.38-.49-.66-1-.9-1.57l1.06,2.51c-.28-.76-.49-1.52-.62-2.32l.38,2.79c-.16-1.2-.15-2.38,0-3.58l-.38,2.79c.21-1.35.59-2.65,1.1-3.92l-1.06,2.51c.7-1.63,1.59-3.13,2.65-4.54l-1.64,2.13c1.28-1.65,2.74-3.11,4.37-4.41l-2.13,1.64c1.76-1.35,3.65-2.46,5.69-3.34l-2.51,1.06c1.82-.75,3.71-1.32,5.66-1.59l-2.79.38c.43-.04.82-.04,1.25,0l-2.79-.38c.27.03.53.1.79.19l-2.51-1.06c.23.09.44.21.64.36l-2.13-1.64c.17.13.32.28.46.45l-1.64-2.13c.2.28.34.54.47.85l-1.06-2.51c.08.21.14.42.17.64l-.38-2.79c.06.45.06.87,0,1.33l.38-2.79c-.09.4-.19.75-.34,1.13l1.06-2.51c-.28.61-.63,1.15-1.03,1.69l1.64-2.13c-.74.92-1.55,1.74-2.47,2.47l2.13-1.64c-.73.54-1.48.98-2.32,1.34l2.51-1.06c-.59.22-1.18.38-1.81.47l2.79-.38c-.59.05-1.15.04-1.74-.03l2.79.38c-.46-.08-.9-.2-1.34-.36l2.51,1.06c-.54-.23-1.01-.5-1.47-.86l2.13,1.64c-.26-.23-.49-.46-.71-.73l1.64,2.13c-.22-.3-.39-.59-.56-.92l1.06,2.51c-.2-.49-.32-.95-.4-1.47l.38,2.79c-.04-.52-.03-1.02.03-1.54l-.38,2.79c.15-.95.43-1.82.8-2.7l-1.06,2.51c.98-2.17,2.35-4.16,3.8-6.04l-1.64,2.13c1.69-2.16,3.58-4.13,5.74-5.83l-2.13,1.64c1.74-1.34,3.6-2.46,5.62-3.32l-2.51,1.06c.89-.36,1.8-.73,2.75-.89l-2.79.38c.3-.03.56-.03.86,0l-2.79-.38.26.07-2.51-1.06c.16.05.3.14.42.25l-3.77-3.77.15.19-1.06-2.51.09.24c.97,2.62,2.34,4.82,4.83,6.28,2.25,1.32,5.57,1.88,8.09,1.06s4.99-2.4,6.28-4.83,2.03-5.47,1.06-8.09c-1.08-2.9-2.46-5.22-5.25-6.86-1.96-1.15-4.1-1.61-6.36-1.64-3.16-.05-6.26,1.38-9.05,2.66-3.47,1.59-6.65,4.06-9.39,6.7s-5.21,5.86-7.28,9.13c-2.96,4.69-4.8,10.38-3.3,15.91,1.85,6.83,8.52,11.47,15.51,11.37,5.39-.07,10.68-2.75,14.21-6.79,2.04-2.32,3.62-4.69,4.49-7.68,1.09-3.7.44-8.07-1.63-11.29-2.61-4.05-6.97-6.28-11.78-6.24-2.26.02-4.87.6-7.05,1.32-8.2,2.7-15.72,8.28-19.92,15.94-2.25,4.11-3.9,9.13-3.52,13.87.56,7,3.74,13.96,11.16,15.88,4.65,1.2,9.74-.62,14.04-2.4,3.81-1.57,7.48-3.3,10.89-5.65s6.38-4.72,9.13-7.55c1.02-1.05,1.99-2.14,2.91-3.29,1.6-2,2.66-3.36,3.51-5.78.77-2.19.79-4.73.15-6.95-1.06-3.66-4.03-6.63-7.71-7.65-2.43-.67-4.68-.34-7.1.16-1.67.35-3.28.86-4.86,1.49-4.57,1.83-8.85,4.13-12.45,7.56-5.19,4.94-7.4,12.78-3.56,19.22,1.82,3.04,4.85,5.2,8.21,6.22,3.12.94,6.03.7,9.17.22,3.58-.55,7.04-1.97,10.28-3.53s6.3-3.81,8.99-6.23c6.14-5.53,9.92-13.15,10.76-21.32.49-4.82-1.14-10.14-4.53-13.64-2.67-2.75-6.22-4.17-10.01-4.37-2.45-.13-4.98.33-7.36.86-3.82.85-7.65,2.48-10.91,4.64-3.91,2.59-8.06,6.07-10.23,10.33-1.8,3.54-2.34,7.08-1.59,11s3.34,7.12,6.65,9.1c5.58,3.34,12.55,1.94,18.05-.67,3.53-1.67,6.74-4.38,9.34-7.28,3.27-3.64,5.99-7.73,7.37-12.47,1.71-5.89,1.12-13.3-3.39-17.85-3.78-3.81-9.85-5.65-15.15-5.16s-10.74,2.49-14.61,6.57-5.87,9.05-6.3,14.55,1.64,11.51,5.81,15.05,9.46,4.77,15.03,5.12c7.25.45,14.99-1.04,21.32-4.69,3.91-2.26,6.84-5.26,9.46-8.88,1.51-2.08,1.71-5.72,1.06-8.09s-2.55-5.08-4.83-6.28c-2.44-1.29-5.39-1.93-8.09-1.06l-2.51,1.06c-1.58.93-2.83,2.19-3.77,3.77h0Z"/><path class="cls-1" d="m206.87,372.48c1.72,5.58,5.46,9.47,10.13,12.75,3.54,2.49,7.73,4.51,11.93,5.55,4.95,1.23,10.22,1.26,15.08-.37,3.26-1.09,6.3-2.81,9.72-3.36l-2.79.38c.91-.12,1.79-.14,2.7-.05l-2.79-.38c.78.11,1.51.3,2.25.58l-2.51-1.06c.95.4,1.8.92,2.63,1.54l-2.13-1.64c1.44,1.15,2.65,2.52,3.78,3.97l-1.64-2.13c1.22,1.61,2.41,3.25,3.25,5.1l-1.06-2.51c.46,1.09.77,2.2.95,3.37l-.38-2.79c.17,1.29.17,2.56.01,3.85l.38-2.79c-.19,1.29-.52,2.52-1,3.73l1.06-2.51c-.47,1.08-1.04,2.09-1.74,3.04l1.64-2.13c-.73.94-1.54,1.76-2.47,2.49l2.13-1.64c-.87.64-1.79,1.17-2.79,1.6l2.51-1.06c-1.12.45-2.25.76-3.44.95l2.79-.38c-1.32.17-2.62.19-3.94.04l2.79.38c-1.31-.18-2.57-.51-3.79-1.02l2.51,1.06c-.99-.44-1.91-.97-2.77-1.62l2.13,1.64c-.91-.72-1.72-1.53-2.45-2.43l1.64,2.13c-.95-1.23-1.71-2.55-2.32-3.98l1.06,2.51c-.69-1.7-1.15-3.45-1.42-5.26l.38,2.79c-.2-1.54-.25-3.07-.08-4.61l-.38,2.79c.16-1.13.42-2.21.86-3.27l-1.06,2.51c.27-.6.58-1.15.97-1.69l-1.64,2.13c.4-.51.83-.95,1.34-1.35l-2.13,1.64c.36-.25.73-.46,1.12-.65l-2.51,1.06c.52-.21,1.03-.35,1.58-.43l-2.79.38c.55-.05,1.08-.04,1.62.03l-2.79-.38c.55.1,1.07.24,1.59.43l-2.51-1.06c.74.31,1.4.7,2.03,1.19l-2.13-1.64c.53.44,1,.91,1.43,1.45l-1.64-2.13c.41.55.74,1.12,1.01,1.76l-1.06-2.51c.29.77.48,1.53.6,2.34l-.38-2.79c.1.95.09,1.88-.01,2.83l.38-2.79c-.2,1.37-.58,2.68-1.11,3.96l1.06-2.51c-.38.84-.79,1.67-1.31,2.43l1.64-2.13c-.14.19-.3.36-.48.51l2.13-1.64c-.18.15-.39.26-.62.34l2.51-1.06-.33.07,2.79-.38h-.34c.93.13,1.86.26,2.79.38-.23-.02-.45-.07-.67-.15l2.51,1.06c-.36-.16-.64-.33-.96-.56l2.13,1.64c-.41-.34-.76-.7-1.09-1.11l1.64,2.13c-1.09-1.48-1.97-3.1-2.71-4.79l1.06,2.51c-.95-2.25-1.58-4.58-1.91-6.99l.38,2.79c-.14-1.14-.2-2.27-.2-3.41,0-2.69-1.17-5.52-3.08-7.42s-4.81-3.19-7.42-3.08c-5.69.25-10.5,4.61-10.5,10.5,0,8.04,2.65,16.45,7.91,22.62,4.83,5.67,13.92,6.71,19.22,1.04,3.5-3.74,5.11-8.96,5.61-13.95.89-8.86-5.12-18.15-14.04-20.07-5.58-1.2-10.81.16-15.12,3.9-1.38,1.2-2.57,2.75-3.42,4.37-.91,1.75-1.75,3.72-2.1,5.69-.75,4.23-.64,7.8.16,12.03.63,3.3,1.97,6.7,3.82,9.5,2.25,3.4,5.16,6.52,8.81,8.45s7.42,2.92,11.49,3.03,8.17-1.01,11.9-2.82,6.34-4.65,8.58-7.84c1.84-2.62,3.12-5.84,3.59-9,.59-3.97.74-7.95-.58-11.82-1.55-4.54-4.24-8.32-7.32-11.95-2.87-3.37-6.82-6.21-11.14-7.34s-9.31-.64-13.63,1.01c-2.94,1.12-5.77,2.55-8.92,2.98l2.79-.38c-1.42.15-2.82.12-4.23-.06l2.79.38c-1.85-.29-3.63-.83-5.36-1.54l2.51,1.06c-2.45-1.06-4.78-2.4-6.9-4.02l2.13,1.64c-1.03-.81-1.97-1.7-2.78-2.73l1.64,2.13c-.46-.62-.85-1.26-1.17-1.96l1.06,2.51c-.15-.36-.28-.71-.39-1.09-.79-2.57-2.48-4.9-4.83-6.28s-5.57-1.88-8.09-1.06c-5.28,1.71-9.07,7.29-7.33,12.92h0Z"/><path class="cls-1" d="m242.91,357.86c-.1-.54-.24-1.08-.41-1.61-.09-.26-.18-.52-.28-.78-.43-1.07-.86-2.14-1.35-3.18-.23-.49-.49-.96-.78-1.41-.15-.23-.31-.46-.47-.68-.69-.93-1.39-1.85-2.13-2.74-.95-1.02-2.08-1.75-3.38-2.17-1.25-.66-2.6-.96-4.05-.9-1.45-.05-2.79.25-4.05.9-1.3.42-2.43,1.15-3.38,2.17l-1.64,2.13c-.95,1.64-1.43,3.4-1.43,5.3l.38,2.79c.5,1.78,1.4,3.32,2.7,4.63.13.15.25.3.37.46l-1.64-2.13c.63.83,1.16,1.74,1.57,2.7l-1.06-2.51c.35.84.62,1.72.79,2.62.32,1.37.95,2.56,1.88,3.57.74,1.14,1.72,2.04,2.95,2.7,1.21.77,2.51,1.18,3.9,1.25,1.4.31,2.79.25,4.19-.19l2.51-1.06c1.58-.93,2.83-2.19,3.77-3.77l1.06-2.51c.5-1.86.5-3.72,0-5.58h0Z"/><path class="cls-1" d="m224.27,344.83c-.74,6.47-3.31,12.74-7.29,17.89-1.03,1.33-4.62,6.43-6.45,4.06-.81-1.04-1-2.57-1.25-3.81-.33-1.64-.57-3.3-.73-4.97-.63-6.52-.11-13.13,1.53-19.47.84-3.24,1.95-6.41,3.36-9.45.65-1.39,1.35-2.75,2.11-4.08.84-1.46,1.69-3.23,2.96-4.37.42-.38,1-.87,1.56-.49s.7,1.39.83,1.99c.43,2,.67,4.06.85,6.1.4,4.3.4,8.62.03,12.93-.16,1.92,2.84,1.91,3,0,.39-4.54.37-9.11-.1-13.64-.22-2.11-.46-4.27-.93-6.34-.36-1.6-1.13-3.23-2.73-3.89-3.77-1.54-6.34,3.23-7.86,5.85-1.98,3.42-3.61,7.05-4.85,10.8-2.48,7.43-3.47,15.42-2.83,23.24.16,2,.43,4,.8,5.98.3,1.63.61,3.35,1.46,4.8s2.27,2.49,3.99,2.46c1.86-.03,3.46-1.26,4.71-2.52,6.13-6.17,9.86-14.47,10.85-23.07.22-1.91-2.78-1.9-3,0h0Z"/><path class="cls-1" d="m215,333.21c-.49,3.48-1.23,6.91-2.23,10.28-.46,1.54-.97,3.07-1.53,4.57-.26.69-.53,1.36-.8,2.04-.56,1.4.55-1.19-.08.18-.24.53-.48,1.07-.72,1.6-1.43,3.06-3.15,5.93-4.92,8.8-.68,1.1.91-.94-.04-.04l1.72-1.02c2.25-.39,3.87.19,4.85,1.75,0-.04-.33-.62-.32-.6l.27.65c-.1-.26-.2-.53-.28-.8-.13-.4-.24-.81-.33-1.22l-.09-.41c-.12-.67-.11-.55.02.35-.3-.55-.13-1.93-.12-2.52,0-.43.03-.85.06-1.28l.04-.43c.08-.67.06-.57-.05.31-.07-.62.26-1.51.4-2.14.39-1.71.91-3.39,1.5-5.04.29-.81.6-1.62.93-2.42.14-.34.46-1.64.06-.15.11-.39.36-.81.53-1.18.72-1.55,1.53-3.06,2.48-4.48.16-.24.33-.46.49-.7.81-1.19-.87.93.11-.12.57-.61,1.11-1.23,1.73-1.78.08-.08,1.12-.9.33-.3s.29-.18.38-.24c.34-.22.68-.43,1.04-.63.23-.13.47-.25.71-.37.59-.27.48-.23-.33.13.05-.24,1.61-.5,1.9-.57,1.32-.35-1.4.02-.03-.02.4,0,.79-.04,1.19-.03l.4.02c.68.06.53.04-.44-.07-.02-.03,1.45.48.34.02l-.38-.16c.55.34.42.24-.38-.3-.46-.44-.76-.97-.9-1.59.17.61.16.39-.02-.68-.03.19-.05.81,0,.99l.12-.92c-.04.23-.1.45-.16.68-.06.23-.14.44-.21.67-.38,1.2.66-1.25.07-.17-.73,1.32-1.43,2.63-2.29,3.86-.11.15-.66.74-.66.91l.48-.62c-.15.2-.31.39-.47.58-.4.48-.81.95-1.23,1.41-1.02,1.1-2.14,2.09-3.28,3.08-1.01.87,1.12-.79.03-.02-.3.22-.6.44-.91.66-.56.39-1.14.77-1.73,1.12s-1.19.69-1.8,1.01c-.33.17-.67.34-1.01.5-.23.11-.45.21-.68.32-.59.26-.46.2.4-.16-.5,0-1.27.49-1.75.66-.71.24-1.43.46-2.15.65-.6.16-1.21.3-1.83.42l-.37.07c-.63.11-.49.09.41-.03-.27.03-.55.04-.82.03.57-.01,1.1.13,1.6.42l.77.61c-.41-.44-.26-.24.45.59,0,0,.58,1.54.31.68-.33-1.02-.03,1.56.08.45v-.3c.06-.63.02-.41-.1.67.12-.27.14-.65.23-.93.06-.21.48-1.16.02-.18s0,.05.09-.12c.24-.46.5-.91.77-1.36.4-.67.83-1.32,1.28-1.96.14-.2.34-.42.46-.63-.73,1.32-.27.34.03-.01.99-1.2,2.08-2.33,3.24-3.38.29-.26.58-.52.88-.77l.3-.25c.5-.4.4-.33-.3.21.13-.34,1.29-.93,1.59-1.13,1.3-.87,2.66-1.64,4.07-2.3l.35-.16c.59-.26.47-.22-.36.14.08.05.95-.36,1.06-.4.67-.23,1.36-.37,2.05-.54.81-.21-1.55.05-.27.04.37,0,.75,0,1.12-.01,1.28-.03-1.37-.35-.16,0,.61.19.47.11-.43-.24.22.1.43.22.63.35-.07.05-1.14-1.04-.34-.23.43.48.36.37-.2-.31.15.22.28.44.4.67.73,1.1-.38-1.25.03.02.16.51.34,1,.49,1.51.57,1.94,1.04,3.91,1.43,5.9.18.92.34,1.84.48,2.76.05.3.38,1.82.04.25.13.6.15,1.25.21,1.86.2,2.01.31,4.04.33,6.06s-.04,3.89-.19,5.83c-.07,1.01-.19,2.01-.29,3.02-.16,1.58.22-1.32-.03.26-.08.54-.16,1.08-.26,1.61-.32,1.88-.74,3.73-1.22,5.57-.2.76-.53.37.18-.34-.18.18-.58.9-.66,1.14l.55-.72c-.44.43-.26.32.55-.34-.53.31-.31.23.68-.24.68-.18,1.36-.16,2.04.04l3.59,2.76c-.28-.45-.56-.91-.8-1.39-.12-.24-.23-.48-.35-.71-.47-.95.14.21.14.34,0-.41-.39-1.09-.51-1.5-.17-.57-.31-1.15-.42-1.73-.05-.26-.09-.52-.14-.78-.16-.81.12,1.23.05.41-.04-.53-.1-1.06-.13-1.6-.06-1.15-.04-2.3.04-3.45.04-.55.09-1.09.15-1.63.09-.88-.2.14-.05.37-.04-.07.13-.8.13-.81.19-1.15.44-2.29.72-3.41.25-1,.53-1.99.84-2.98.17-.54.34-1.07.53-1.6.09-.27.19-.53.29-.79.15-.39.35-1.55.03-.13.23-1,1-2.12,1.52-2.99.29-.48.6-.94.91-1.41.09-.13.53-.69.03-.07-.56.71.17-.19.29-.33.35-.39.72-.77,1.1-1.13.19-.18.4-.35.59-.53.76-.7-.14.15-.28.2.43-.14.91-.63,1.32-.86.23-.13.46-.24.69-.38,1.12-.67-1.24.39,0-.02.43-.15.86-.29,1.3-.4.25-.06.51-.1.76-.16.79-.18-1.24.07-.43.07.47,0,.95,0,1.42,0,.78,0-1.32-.25-.56-.09.28.06.56.11.84.18.4.1.91.4,1.31.42-.85-.04-1.06-.49-.49-.19.2.11.41.21.61.32.38.22.77.58,1.17.75-.11-.05-1.11-.95-.39-.29.22.2.44.39.65.59.34.33.66.67.97,1.03.93,1.09-.66-.99.13.2.26.4.51.8.73,1.22.11.21.2.43.32.64.34.61-.49-1.44-.12-.29.15.45.31.89.42,1.35.06.23.1.46.16.69.14.6-.2.48-.05-.55-.07.45.09,1.04.09,1.51,0,.58-.05,1.15-.08,1.72-.05.81.23-1.25.06-.46-.05.25-.09.5-.15.75-.1.44-.21.87-.34,1.3-.04.15-.54,1.43-.51,1.45-.11-.08.55-1.19.15-.37-.17.35-.34.7-.52,1.04-.49.91-1.22,1.71-1.68,2.62,0,0,.77-.92.33-.44-.18.19-.33.4-.51.6-.39.44-.79.87-1.21,1.28-.37.36-.76.71-1.16,1.05,0,0-.54.5-.6.49.14.02,1.03-.73.25-.22-.48.32-.97.61-1.46.91-.99.61.14-.16.27-.08.22.14-1.67.16-.42.2.91.03,0-.05-.25-.02-.83.1,1.22.33.52.08-1.33-.49,1.06.68-.17-.06s.8.82-.16-.17c-.17-.18-.77-.69-.11-.08s.03-.06-.12-.29c-.53-.76.14.26.15.47,0-.21-.21-.6-.28-.83-.08-.28-.13-.56-.2-.85-.23-.88-.1.17.04.3-.21-.19-.05-1.46-.04-1.75.02-.66.09-1.32.15-1.98.08-.86-.2,1.15-.04.35.05-.26.09-.53.14-.79.1-.53.21-1.06.34-1.58.11-.46.24-.91.38-1.36.08-.26.16-.51.25-.76.07-.19.14-.38.21-.56.16-.42.09-.25-.22.51-.1-.19.71-1.4.82-1.59.13-.23.27-.45.42-.67.55-.83.3-.12-.11.09.44-.23.93-1,1.31-1.36.41-.39.57-.12-.35.25.21-.09.42-.29.61-.41.21-.13.42-.25.64-.37.16-.09.33-.17.49-.25.42-.19.22-.11-.59.25.17.08,1.34-.38,1.57-.44.76-.2-1.31.08-.53.07.29,0,.6,0,.89-.02.94-.07-.35-.05-.53-.12.3.11.73.16,1.04.24.69.17.03.35-.45-.22.11.13.43.22.58.31.11.07.4.31.55.35-.73-.59-.93-.73-.58-.43.12.11.24.22.36.33.1.1.35.44.44.47-.28-.1-.81-1.22-.25-.31.22.36.44,1,.73,1.29-.56-.57-.43-1.14-.22-.51.11.32.22.64.3.97.12.44.17.89.28,1.33-.45-1.83-.06-.2-.06.44,0,.52-.27,2.44.04.42-.25,1.65-.27,3.12.6,4.62.73,1.24,2.16,2.43,3.59,2.76,2.86.65,6.87-.87,7.38-4.19.64-4.15.29-8.08-1.56-11.9-1.69-3.49-4.85-6.17-8.54-7.31-4.02-1.25-8.7-.35-12.23,1.84-3.72,2.31-6.15,5.8-7.77,9.79-1.42,3.49-2.18,7.56-2.09,11.33.12,4.86,1.99,9.26,5.95,12.18,8.08,5.95,17.39-1.57,22.01-8.22s5.56-14.9,2.18-22.1c-3.08-6.56-10.35-11.57-17.75-10.82-4.4.45-8.26,2.32-11.55,5.27s-5.21,6.58-6.8,10.45c-2.61,6.37-4.2,13.79-3.36,20.67.23,1.92.51,3.82,1.13,5.65.73,2.16,1.76,4.93,3.42,6.59,2.41,2.41,6.43,2.22,9.18.53,1.77-1.09,3.15-2.81,4-4.69,1.81-3.98,2.33-8.55,2.84-12.85.44-3.71.58-7.45.41-11.19-.19-4.26-.74-8.53-1.61-12.7s-1.83-8.36-4.54-11.58c-5.87-6.97-16.07-3.47-22.46.69-2.92,1.9-5.67,4.18-7.96,6.81-2.52,2.89-4.9,6.18-6.14,9.85-1.42,4.23-.54,9.43,3.46,11.94,3.78,2.38,8.68,1.16,12.64-.19,6.5-2.22,12.55-6.1,17.01-11.37,2.44-2.88,4.54-5.99,5.94-9.5,1.79-4.5,1.06-10.17-3.4-12.86-3.64-2.19-8.66-2.03-12.54-.58s-7.15,3.77-9.69,6.95c-2.75,3.44-4.57,7.2-6.21,11.27-1.31,3.24-2.39,6.55-2.9,10.02-.69,4.75-.41,9.34,1.59,13.77,1.03,2.27,2.88,4.07,5.31,4.76,3.77,1.08,7.08-1.22,9.16-4.15,4.28-6.06,7.38-13.28,9.48-20.37,1-3.37,1.74-6.8,2.23-10.28.24-1.67.28-3.11-.6-4.62-.73-1.24-2.16-2.43-3.59-2.76-2.83-.65-6.91.87-7.38,4.19h0Z"/><path class="cls-1" d="m235.3,373.17c2.21-6.81,4.71-13.52,7.5-20.11l-1.06,2.51c1.32-3.12,2.47-6.68,4.52-9.41l-1.64,2.13c.36-.44.75-.84,1.2-1.19l-2.13,1.64c.27-.18.53-.32.83-.45l-2.51,1.06c.19-.07.39-.13.59-.16l-2.79.38c.21-.03.42-.04.63-.02l-2.79-.38c.3.04.56.1.85.19l-2.51-1.06c.24.11.43.22.65.37l-2.13-1.64c.19.16.34.32.5.52l-1.64-2.13c.14.21.26.41.36.64l-1.06-2.51c.16.42.27.84.34,1.29l-.38-2.79c.07.69.06,1.37-.01,2.06l.38-2.79c-.26,1.96-1.07,3.73-1.83,5.54l1.06-2.51c-1.73,4.09-3.64,8.09-5.71,12.02l19.19,2.51c-1.38-3.59-2.33-7.31-2.86-11.12l.38,2.79c-.34-2.59-.49-5.2-.42-7.82s.29-5.01.15-7.52c-.23-4.08-1.01-7.8-2.91-11.44-1.62-3.11-4.19-5.62-7.07-7.55-3.74-2.52-8.35-3.05-12.69-2.28-3.86.69-6.86,2.94-9.86,5.28-3.92,3.04-7.78,6.17-11.48,9.48-7.72,6.89-14.9,14.91-19.65,24.18-2.43,4.75-4.48,9.85-5.47,15.11-.52,2.76-1,5.62-.94,8.45.06,2.59.37,5.34,1.28,7.79,1.55,4.15,3.86,7.58,7.63,10.02,4.03,2.61,8.91,2.97,13.5,2.02,7.6-1.57,12.55-8.02,16.2-14.34,1.37-2.37,1.79-5.45,1.06-8.09-.67-2.44-2.55-5.08-4.83-6.28-5.01-2.65-11.43-1.31-14.37,3.77-.92,1.6-1.86,3.18-2.96,4.66l1.64-2.13c-.86,1.11-1.8,2.12-2.91,2.99l2.13-1.64c-.75.55-1.53.99-2.38,1.36l2.51-1.06c-.73.28-1.47.49-2.25.61l2.79-.38c-.64.07-1.26.08-1.9.03l2.79.38c-.64-.09-1.24-.25-1.84-.49l2.51,1.06c-.48-.22-.92-.47-1.34-.78l2.13,1.64c-.48-.38-.9-.8-1.29-1.27l1.64,2.13c-.44-.58-.79-1.19-1.09-1.85l1.06,2.51c-.47-1.11-.75-2.25-.93-3.43l.38,2.79c-.23-1.8-.19-3.58.04-5.38l-.38,2.79c.53-3.89,1.6-7.64,3.1-11.26l-1.06,2.51c1.98-4.67,4.61-9,7.68-13.02l-1.64,2.13c6.6-8.54,15-15.54,23.49-22.13l-2.13,1.64c1.02-.77,2.06-1.49,3.23-2.02l-2.51,1.06c.66-.27,1.3-.45,2-.56l-2.79.38c.47-.04.93-.05,1.4,0l-2.79-.38c.69.1,1.33.28,1.98.55l-2.51-1.06c.64.3,1.22.67,1.79,1.1l-2.13-1.64c.66.55,1.23,1.15,1.75,1.82l-1.64-2.13c.58.8,1.05,1.63,1.44,2.54l-1.06-2.51c.41,1.07.67,2.17.84,3.3l-.38-2.79c.63,4.86-.22,9.78.18,14.67.47,5.62,1.5,11.16,3.51,16.43.65,1.69,1.4,3.33,2.7,4.63,1.64,1.64,3.75,2.58,6.03,2.89,3.98.53,8.51-1.3,10.46-5.01,2.68-5.09,5.03-10.31,7.22-15.63s2.7-11.46-.37-16.53-8.98-7.26-14.48-5.88c-4.1,1.03-7.17,3.88-9.41,7.35-1.24,1.92-2.06,4.18-2.97,6.27-1.28,2.95-2.53,5.91-3.73,8.89-2.14,5.31-4.09,10.7-5.86,16.14s1.98,11.7,7.33,12.92c5.76,1.31,11.1-1.74,12.92-7.33h0Z"/><path class="cls-1" d="m214.2,320.5c-9.19.33-17.32,4.13-24.23,10.05-6.55,5.61-10.81,13.14-13.94,21.06-2.85,7.22-4.27,14.94-5.42,22.59-.23,1.5-.57,3.08-.51,4.61.09,2.44.68,4.86,1.99,6.94,2.38,3.81,6.9,6.38,11.45,6.03,4.09-.32,7.31-1.93,10.44-4.47,1.16-.94,2.21-2.01,3.23-3.09,4.7-4.97,8.55-10.79,13.98-15.03l-2.13,1.64c1.49-1.13,3.08-2.11,4.79-2.86l-2.51,1.06c1.14-.48,2.31-.84,3.51-1.1l-13.29-10.12c.12,1.41.08,2.79-.1,4.19l.38-2.79c-.28,1.82-.8,3.56-1.5,5.26l1.06-2.51c-1.08,2.5-2.5,4.81-4.15,6.97l1.64-2.13c-5.15,6.58-12.36,11.57-16.75,18.74-1.77,2.89-2.62,6.03-2.87,9.38-.11,1.52.18,3.05.41,4.55.13.83.33,1.61.63,2.39,1.99,5.21,5.36,9.49,10.16,12.4,8.1,4.92,18.07,4.2,27.15,4.06s17.24-.25,25.87-.38c4.81-.07,9.62-.14,14.43-.21,2.4-.03,4.81-.07,7.21-.1s4.71-.24,7.02-.05l-2.79-.38c.23.02.45.07.67.15l-2.51-1.06c.22.07.42.18.6.32l-2.13-1.64.19.19-1.64-2.13.15.23-1.06-2.51c.08.16.14.34.16.52l-.38-2.79v.27c.13-.93.26-1.86.38-2.79l-.05.25,1.06-2.51-.1.23,1.64-2.13-.16.19,2.13-1.64-.22.14h10.6c-.49-.29-.96-.61-1.41-.94l2.13,1.64c-1.06-.83-1.98-1.77-2.8-2.83l1.64,2.13c-.94-1.27-1.7-2.63-2.32-4.09l1.06,2.51c-.98-2.39-1.58-4.89-1.94-7.45l.38,2.79c-.29-2.16-.4-4.33-.41-6.52-.02-3.12-.24-6.12-.71-9.21-.42-2.81-1.4-5.72-2.98-8.08-1.36-2.04-2.75-3.56-4.65-5.03-1.39-1.07-2.89-1.94-4.3-2.99l2.13,1.64c-.68-.54-1.27-1.14-1.82-1.81l1.64,2.13c-.83-1.08-1.47-2.26-2.01-3.51l1.06,2.51c-1.42-3.48-2.12-7.24-2.99-10.88-1-4.18-1.92-8.4-3.04-12.55-1.31-4.85-3.5-10.06-7.37-13.44-4.94-4.32-11.71-6.84-18.23-4.72-2.59.84-4.88,2.44-6.28,4.83-1.32,2.25-1.88,5.57-1.06,8.09s2.4,4.99,4.83,6.28,5.39,1.94,8.09,1.06c.47-.15.93-.26,1.42-.33l-2.79.38c.61-.05,1.19-.04,1.8.03l-2.79-.38c.73.12,1.42.33,2.11.61l-2.51-1.06c.81.37,1.54.81,2.25,1.35l-2.13-1.64c.69.56,1.29,1.17,1.85,1.86l-1.64-2.13c.83,1.11,1.48,2.3,2.02,3.57l-1.06-2.51c1.29,3.18,1.95,6.59,2.75,9.91.89,3.7,1.77,7.4,2.67,11.11s1.95,7.11,3.72,10.34c1.06,1.93,2.46,3.82,4.1,5.29,1.86,1.68,3.95,2.83,5.93,4.28l-2.13-1.64c.57.46,1.08.96,1.55,1.53l-1.64-2.13c.56.74,1,1.52,1.36,2.37l-1.06-2.51c.52,1.33.82,2.71,1.02,4.12l-.38-2.79c.33,2.77.21,5.56.33,8.34.14,3.52.57,7.09,1.4,10.51,1.8,7.39,6.05,14.14,12.65,18.09,3.12,1.87,7.49,1.98,10.6,0,3.44-2.19,5.68-5.72,5.72-9.88.03-3.18-1.31-6.41-3.58-8.63-3.53-3.45-8.13-3.6-12.73-3.53-5.39.08-10.78.16-16.17.24-10.61.15-21.22.31-31.83.46-5.62.08-11.39.52-16.98-.21l2.79.38c-1.87-.27-3.68-.71-5.44-1.42l2.51,1.06c-1.18-.51-2.26-1.13-3.29-1.92l2.13,1.64c-.87-.71-1.65-1.48-2.34-2.36l1.64,2.13c-.59-.78-1.08-1.6-1.49-2.49l1.06,2.51c-.37-.88-.63-1.77-.77-2.72l.38,2.79c-.07-.71-.08-1.4,0-2.11l-.38,2.79c.12-.78.33-1.51.62-2.24l-1.06,2.51c.47-1.03,1.06-1.97,1.74-2.87l-1.64,2.13c4.19-5.35,9.65-9.57,13.88-14.89,3.1-3.89,5.46-7.69,7.28-12.33,1.44-3.69,2.16-7.9,1.82-11.85-.3-3.41-1.38-6.12-4.14-8.25s-5.79-2.6-9.15-1.88c-7.17,1.53-13.28,6.25-18.13,11.56-3.97,4.35-7.38,9.53-12.02,13.22l2.13-1.64c-.56.41-1.14.75-1.77,1.04l2.51-1.06c-.41.16-.81.28-1.25.36l2.79-.38c-.31.03-.58.04-.9.01l2.79.38c-.19-.02-.37-.07-.55-.14l2.51,1.06c-.18-.07-.35-.16-.5-.28l2.13,1.64c-.16-.12-.31-.26-.44-.43l1.64,2.13c-.14-.19-.26-.39-.34-.61l1.06,2.51c-.08-.22-.14-.44-.17-.68l.38,2.79c-.06-.62-.03-1.2.05-1.82l-.38,2.79c1.2-8.13,2.74-16.34,5.89-23.97l-1.06,2.51c1.5-3.56,3.35-6.94,5.71-10.01l-1.64,2.13c1.89-2.41,4.03-4.59,6.44-6.48l-2.13,1.64c2.1-1.6,4.35-2.95,6.79-3.98l-2.51,1.06c1.96-.8,3.98-1.37,6.08-1.69l-2.79.38c.87-.12,1.74-.19,2.62-.22,2.75-.1,5.45-1.1,7.42-3.08,1.82-1.82,3.19-4.81,3.08-7.42s-1.01-5.53-3.08-7.42-4.62-3.17-7.42-3.08h0Z"/><path class="cls-10" d="m155.06,360.14l.2,15.45c.33.71,1.33,2.61,3.63,3.82,3.6,1.91,7.33.52,7.81.33"/><path class="cls-10" d="m209.83,308.25l-55.43,53.54c28.63-30.02,50.85-51.11,58.19-56.04,4.86-3.27,10-4.42,10-4.42,1.44-.32,6.34-1.3,12.48-.04,4.06.83,7.13,2.32,9.05,3.44"/><path class="cls-10" d="m222.38,325.96l-55.08,53.22c34.39-33.04,54.33-52.31,56.42-54.57.04-.05.32-.35.77-.7,2.41-1.85,6.76-2.57,9.89-.6.44.28,1.15.79,1.85,1.68"/><path class="cls-10" d="m289.9,375.41c.46.59,1.53,1.78,3.38,2.55,2.08.86,3.97.69,4.79.56,2.22-.34,3.63-1.41,3.9-1.61.85-.66,1.39-1.37,1.7-1.86"/><path class="cls-10" d="m303.85,374.76c.14-.17.32-.4.49-.7,0,0,.28-.49.45-1.05.14-.47,1.39-5.3-.09-12.1,0,0-.48-2.21-1.68-3.58-.35-.41-.76-.75-.76-.75-.06-.05-.1-.08-.1-.08-.3-.25-17.82-15.85-58.53-52.13"/><line class="cls-10" x1="303.66" y1="375.06" x2="303.92" y2="374.71"/><line class="cls-10" x1="235.57" y1="324.34" x2="291.52" y2="376.84"/><line class="cls-10" x1="169.99" y1="376.7" x2="170.62" y2="417.16"/><path class="cls-10" d="m181.07,426.4c-1.24-.24-3.74-.93-6.19-3.1-2.8-2.48-3.96-5.49-4.4-6.81"/><path class="cls-10" d="m180.38,426.34l100.6-1.06c1.38-.54,3.37-1.53,5.22-3.3.81-.77,2.23-2.16,3.11-4.4.31-.79.47-1.48.56-1.97"/><line class="cls-10" x1="289.27" y1="375.17" x2="289.89" y2="415.62"/><path class="cls-10" d="m169.27,305.14l.33,39.67c-1.26-22.38-1.26-38.66-.29-40.57.89-1.73,2.31-2.68,2.31-2.68.57-.44,1.21-.63,1.59-.78,1.34-.52,2.48-.66,3-.73,4.64-.55,8.17-.94,12.09-.17.69.13,1.69.36,2.75,1.03.42.26,1.6,1.02,2.26,2.42.29.6.39,1.13.43,1.46.24,1.72.44,7.77.49,15.99"/><path class="cls-3" d="m153.67,358.53l-.74.02c-.21,0-.4.04-.58.13-.19.06-.35.16-.48.31-.15.14-.25.3-.31.48-.09.18-.14.37-.13.58l.05.4c.07.25.2.47.39.66l.3.23c.23.14.49.2.76.2l.74-.02c.21,0,.4-.04.58-.13.19-.06.35-.16.48-.31.15-.14.25-.3.31-.48.09-.18.14-.37.13-.58l-.05-.4c-.07-.25-.2-.47-.39-.66l-.3-.23c-.23-.14-.49-.2-.76-.2h0Z"/><path class="cls-3" d="m152.93,358.54c-.1,0-.2,0-.3-.01l.4.05c-.07-.01-.14-.03-.22-.04,0,0-.02,0-.03,0l-.4-.05s-.04,0-.05,0l-.4.05s-.01,0-.02,0c-.13.04-.26.1-.38.16-.01,0-.02.01-.03.02-.05.04-.11.08-.16.12-.05.04-.11.08-.16.12-.11.1-.2.24-.28.35-.03.04-.06.09-.08.14l2.74.36s0-.04-.01-.06c-.05-.2-.14-.37-.27-.51-.11-.16-.25-.29-.42-.39-.17-.11-.36-.17-.56-.18-.2-.04-.4-.04-.6.03l-.36.15c-.23.13-.4.31-.54.54l-.15.36c-.07.27-.07.53,0,.8,0,.02,0,.04.01.06l.15.36.23.3.3.23c.17.11.36.17.56.18.13.04.27.04.4,0,.14,0,.26-.03.38-.1.13-.04.24-.1.33-.19.16-.11.29-.25.39-.42.02-.05.05-.11.08-.15l-.23.3s.03-.03.05-.05l-.3.23s.03-.02.05-.03l-.36.15s.03,0,.04-.01l-.4.05s.04,0,.05,0l-.4-.05s.09.02.14.03c.17.03.35.05.53.07.1.01.19.01.29.01.21,0,.4-.04.58-.13.19-.06.35-.16.48-.31.15-.14.25-.3.31-.48.09-.18.14-.37.13-.58l-.05-.4c-.07-.25-.2-.47-.39-.66l-.3-.23c-.23-.14-.49-.2-.76-.2h0Z"/><path class="cls-3" d="m152.02,358.66s-.08.03-.13.03l.4-.05s-.06,0-.08,0l.4.05s-.04,0-.06-.02l.36.15s-.03-.01-.04-.02l.3.23s-.02-.02-.03-.03l.23.3s-.01-.02-.02-.03l.15.36s0-.02,0-.04l.05.4s0-.04,0-.06l-.05.4s0-.04.02-.05l-.15.36s.03-.05.04-.07l-.23.3s.06-.06.08-.09c.15-.14.25-.3.31-.48.09-.18.14-.37.13-.58l-.05-.4c-.05-.2-.14-.37-.27-.51-.07-.11-.16-.2-.27-.27-.14-.13-.31-.22-.51-.27l-.4-.05c-.27,0-.52.07-.76.2-.24.15-.42.32-.57.56-.07.12-.14.26-.17.4-.04.17-.06.34-.06.52,0,.1,0,.21,0,.31,0,.21.04.4.13.58.06.19.16.35.31.48.14.15.3.25.48.31.18.09.37.14.58.13l.4-.05c.25-.07.47-.2.66-.39l.23-.3c.14-.23.2-.49.2-.76,0-.07,0-.15,0-.22,0-.07,0-.13,0-.2l-.05.4s0-.03,0-.04l-.15.36s0-.02.01-.02l-.23.3s0,0,.01-.01l-.3.23s0,0,.01,0l-1.82-2.36s-.05.05-.07.08c0,0,0,0-.01.01l-.23.3s-.01.02-.02.02c0,.01-.02.03-.03.05-.14.31-.22.49-.22.84,0,.3.08.58.23.84.03.06.12.15.13.17,0,.01.08.12.13.17.1.1.21.18.33.26s.26.12.39.17c.01,0,.03,0,.05.01-.05,0,.31.06.44.06.01,0,.02,0,.03,0,.14-.02.28-.03.42-.06.04,0,.08-.02.12-.03.2-.05.37-.14.51-.27.16-.11.29-.25.39-.42.11-.17.17-.36.18-.56.04-.2.04-.4-.03-.6l-.15-.36c-.13-.23-.31-.4-.54-.54l-.36-.15c-.27-.07-.53-.07-.8,0h0Z"/><path class="cls-3" d="m152.04,361.88c1.93,0,1.93-3,0-3s-1.93,3,0,3h0Z"/><path class="cls-3" d="m151.81,358.9l-.06.02c-.2.05-.37.14-.51.27-.16.11-.29.25-.39.42-.11.17-.17.36-.18.56-.04.2-.04.4.03.6l.15.36c.13.23.31.4.54.54l.36.15c.27.07.53.07.8,0l.06-.02c.2-.05.37-.14.51-.27.16-.11.29-.25.39-.42.11-.17.17-.36.18-.56.04-.2.04-.4-.03-.6l-.15-.36c-.13-.23-.31-.4-.54-.54l-.36-.15c-.27-.07-.53-.07-.8,0h0Z"/><path class="cls-1" d="m190.27,363.49c-2.07,2.56-4.49,4.79-6.68,7.24-2.36,2.65-4.25,5.49-5.52,8.81-2.39,6.25-2.16,13.22-1.89,19.79.07,1.62,1.33,3,3,3,1.57,0,3.07-1.37,3-3-.25-5.95-.53-12.12,1.53-17.81s7.14-9.26,10.8-13.79c1.02-1.26,1.23-3.01,0-4.24-1.05-1.05-3.22-1.27-4.24,0h0Z"/><path class="cls-1" d="m181.33,390.06c.03-1.67-.1-3.32-.33-4.97-.05-.39-.12-.77-.18-1.16-.02-.13-.14-1.24-.1-.58,0-.14.04-1.23-.07-.58.03-.17.07-.33.12-.5.1-.28.11-.32.03-.12-.14.33.27-.48.32-.56.18-.3.36-.6.56-.89s.4-.58.61-.87c-.37.51.19-.23.27-.33.88-1.05,1.87-2,2.94-2.85,1.23-.98,1.1-3.23,0-4.24-1.31-1.2-2.93-1.05-4.24,0-2.43,1.94-4.72,4.53-5.94,7.42-.8,1.9-.63,3.7-.29,5.68.03.19.06.38.1.57s.06.42.02.09c.05.4.09.79.12,1.19.07.89.09,1.79.07,2.69-.03,1.57,1.4,3.07,3,3s2.97-1.32,3-3h0Z"/><path class="cls-1" d="m159.52,362.96c-.11,3.82.05,7.64.47,11.44.05.47.8.48.75,0-.42-3.8-.58-7.62-.47-11.44.01-.48-.74-.48-.75,0h0Z"/><path class="cls-1" d="m160.46,374.4c-.41-3.8-.59-7.62-.55-11.44,0-.48-.74-.48-.75,0-.05,3.82.13,7.64.55,11.44.05.47.8.48.75,0h0Z"/><path class="cls-1" d="m160.23,363.68c.48,0,.48-.75,0-.75s-.48.75,0,.75h0Z"/><path class="cls-1" d="m159.94,362.99c12.17-12.12,24.44-24.35,38.69-34.06,4.01-2.73,8.17-5.25,12.47-7.49.43-.22.05-.87-.38-.65-15.28,7.97-28.39,19.33-40.72,31.23-3.57,3.44-7.08,6.94-10.59,10.43-.34.34.19.87.53.53h0Z"/><path class="cls-1" d="m164.19,375.06c-.68.16-1.41.35-2.11.22s-1.21-.6-1.71-1.09c-.34-.34-.88.19-.53.53.58.57,1.21,1.13,2.04,1.28s1.69-.03,2.51-.22c.47-.11.27-.84-.2-.72h0Z"/><path class="cls-1" d="m164.65,374.97c2.11-1.82,3.96-3.94,5.44-6.3s2.36-5.28,4.06-7.59c.29-.39-.36-.76-.65-.38-1.66,2.26-2.47,5.02-3.94,7.39s-3.32,4.52-5.45,6.35c-.37.32.17.84.53.53h0Z"/><path class="cls-1" d="m164.99,375.36c6.36-6.06,12.72-12.13,19.07-18.19,2.94-2.81,5.94-5.55,8.51-8.71s4.62-6.35,6.57-9.75c.24-.42-.41-.8-.65-.38-1.99,3.48-4.18,6.85-6.74,9.95s-5.63,5.9-8.58,8.71l-18.71,17.85c-.35.33.18.86.53.53h0Z"/><path class="cls-1" d="m164.39,366.24c11.61-12.93,27.01-21.58,39.24-33.84,2.73-2.74-1.51-6.98-4.24-4.24-12.23,12.26-27.63,20.91-39.24,33.84-1.08,1.21-1.19,3.05,0,4.24,1.1,1.1,3.16,1.21,4.24,0h0Z"/><path class="cls-1" d="m178.75,352.53c3.38-3.05,6.75-6.1,10.13-9.16,1.59-1.44,3.3-2.83,4.69-4.47.62-.73,1.16-1.52,1.82-2.2.08-.08.59-.53.48-.45-.21.16.43-.24.19-.11s.48-.17.17-.08c-.17.05.48.11.07,0,1.57.39,3.25-.5,3.69-2.1s-.52-3.3-2.1-3.69c-2.71-.67-5.31.52-7.1,2.56-.76.87-1.43,1.82-2.23,2.66-.86.89-1.79,1.7-2.71,2.52-3.78,3.42-7.56,6.83-11.34,10.25-1.2,1.09-1.1,3.14,0,4.24,1.2,1.2,3.04,1.09,4.24,0h0Z"/><path class="cls-1" d="m166.52,368.71c3.86,0,3.87-6,0-6s-3.87,6,0,6h0Z"/><path class="cls-1" d="m169.85,367.55c3.86,0,3.87-6,0-6s-3.87,6,0,6h0Z"/><path class="cls-1" d="m173.51,365.38c3.86,0,3.87-6,0-6s-3.87,6,0,6h0Z"/><path class="cls-1" d="m175.11,364.16c4.67-4.73,9.73-9.09,14.66-13.55s10.1-9.15,15.15-13.72c1.2-1.09,1.11-3.14,0-4.24-1.19-1.19-3.04-1.09-4.24,0-5.05,4.57-10.1,9.15-15.15,13.72s-9.99,8.82-14.66,13.55c-2.72,2.75,1.52,7,4.24,4.24h0Z"/><path class="cls-1" d="m159.89,366.87v4.52c0,1.15-.12,2.48.51,3.5s1.82,1.33,2.89.9c1.25-.51,2.16-1.77,3.06-2.73,3.84-4.09,7.89-8.09,11-12.79.8-1.21-1.15-2.34-1.94-1.14-2.56,3.87-5.83,7.19-9,10.57-.83.88-1.66,1.77-2.48,2.65-.37.39-.71.83-1.14,1.16-.28.21-.39.32-.53.08-.15-.26-.11-.71-.11-1,0-.6,0-1.21,0-1.81v-3.92c0-1.45-2.25-1.45-2.25,0h0Z"/><path class="cls-1" d="m169.08,370.68c7.08-6.32,14.06-12.75,20.94-19.28,1.05-1-.54-2.59-1.59-1.59-6.88,6.53-13.86,12.96-20.94,19.28-1.08.97.51,2.55,1.59,1.59h0Z"/><path class="cls-1" d="m173.21,356.71c-2.43,2.61-6.27,3.14-8.87,5.56-1.45,1.35-2.67,3.32-3.25,5.22-.31,1.01-.36,2.05-.15,3.08s.71,1.95.71,2.99l1.69-.97c.61.38.07.49.23.17.1-.2.12-.48.18-.7.13-.5.26-1,.39-1.5.26-1,.53-1.99.79-2.99l-2.21-.3c.02,1.65.05,3.3.07,4.95.02,1.33,1.78,1.45,2.21.3.34-.9.66-1.81,1.01-2.7.02-.05.31-.58.3-.63l-.72-.39s-.05.06-.09.09c-.1.02-.35.25-.43.3-1.23.76-.1,2.71,1.14,1.94.81-.5,1.61-1.18,1.62-2.22.01-.93-.63-1.82-1.59-1.89s-1.69.61-2.09,1.44c-.53,1.1-.89,2.32-1.32,3.47l2.21.3c-.02-1.65-.05-3.3-.07-4.95-.02-1.25-1.88-1.55-2.21-.3-.38,1.45-.76,2.89-1.14,4.34-.31,1.17-.63,2.45.58,3.22.73.46,1.69-.14,1.69-.97,0-1.92-1.23-3.55-.64-5.48.53-1.72,1.73-3.53,3.16-4.64,2.62-2.04,6.07-2.65,8.39-5.14.99-1.06-.6-2.65-1.59-1.59h0Z"/><path class="cls-1" d="m175.14,314.02c.24-1.94.08-3.87-.17-5.8-.08-.6-.49-1.83-.07-2.36s1.82-.59,2.45-.69c1.89-.3,3.84-.43,5.75-.49,1.75-.06,3.64.1,5.05,1.26l-.22-.53c0,2.55-.72,4.99-2.08,7.15-.52.82.78,1.57,1.3.76,1.19-1.9,1.94-4.02,2.2-6.24.06-.53.16-1.13.09-1.66s-.52-.8-.93-1.07c-.88-.57-1.91-.89-2.93-1.04-2.33-.34-4.83-.04-7.15.23-1.69.19-4.78.25-5.11,2.43-.18,1.21.23,2.57.35,3.78.14,1.43.17,2.85,0,4.28-.12.96,1.38.95,1.5,0h0Z"/><path class="cls-1" d="m174.77,335.11c2.51-3.03,5.34-5.77,8.27-8.39,1.45-1.3,2.93-2.57,4.4-3.84,1.2-1.03,3.14-2.23,2.29-4.06-.41-.87-1.7-.11-1.3.76.27.57-1.28,1.58-1.63,1.88-.63.54-1.26,1.09-1.9,1.63-1.33,1.15-2.66,2.31-3.96,3.5-2.56,2.34-5.03,4.78-7.24,7.46-.61.74.44,1.81,1.06,1.06h0Z"/><path class="cls-1" d="m174.91,334.48c-.29-9.18.02-18.41.05-27.59,0-.97-1.5-.97-1.5,0-.04,9.18-.34,18.41-.05,27.59.03.96,1.53.97,1.5,0h0Z"/><path class="cls-1" d="m179.68,317.89l.43-7.22c.07-1.21.28-2.49-.1-3.66-.7-2.13-3.18-3.05-5.11-1.94-1.11.64-1.78,2.14-1.38,3.39.44,1.37,1.52,2.04,2.89,2.2,1.98.24,3.98-.19,5.9-.63.46-.11.93-.22,1.39-.31.21-.04.41-.08.62-.12.28-.06.39-.03.05-.02.15,0,.31-.01.46-.02.52-.02-.12-.02-.29-.09-.26-.1-.94-1.27-1.05-1.27-.03-.17-.04-.16-.04.02,0,.16-.02.32-.03.48-.26,3.96-.53,7.91-.79,11.86l3.8-2.89c-1.49-.26-2.91-.09-4.18.8-1.1.77-1.8,1.77-2.59,2.83.18-.24.13-.14-.04.03s-.67.48-.16.2c-.5.27.37-.13.01,0-.23.08.47,0,.65.04l-.2-.05c.5.1.83.37,1.01.8.43.74.1.02.06-.23.09.55.02-.36.02-.4l.02-.3c-.04.25-.04.27,0,.05.12-.5.23-.99.41-1.47.04-.12.25-.66.1-.3.1-.24.21-.48.33-.71.47-.99.98-1.95,1.41-2.95,1.04-2.43,1.7-5.04.86-7.64-.46-1.43-1.79-2.35-3.29-2.15-1.42.19-2.66,1.45-2.6,2.95.14,3.34.27,6.68.41,10.02.06,1.57,1.33,3.07,3,3,1.57-.07,3.07-1.32,3-3-.14-3.34-.27-6.68-.41-10.02l-5.89.8s.25.95.15.37c.05.29.02.6.02.89,0,.6.12-.23-.06.4-.07.25-.12.5-.2.74-.31,1.04-.66,1.66-1.25,2.86-1.2,2.42-2.28,5-1.91,7.76.21,1.56.82,3.05,2.24,3.88,1.18.7,2.75.82,4.04.35,1.43-.52,2.39-1.47,3.29-2.66.16-.22.32-.44.48-.66.52-.72-.37.44.21-.24l.2-.2c-.25.17-.23.16.06-.03-.29.04-.47.09-.79.03,2,.35,3.66-.82,3.8-2.89.15-2.32.31-4.63.46-6.95.08-1.13.15-2.26.23-3.39.08-1.23.32-2.57-.11-3.76-1.07-2.99-4.14-3.11-6.79-2.59-1.09.21-2.16.5-3.25.71-.26.05-.51.1-.77.13.42-.05-.13,0-.28,0-.57.03-1.13.01-1.71-.06l1.51,5.59.17-.1-1.51.41h.2c-.5-.13-1.01-.27-1.51-.41l-.27-.23-.77-1.32c.02-.36.03-.36.01,0l-.04.69-.06,1.03-.15,2.58-.3,4.99c-.09,1.57,1.45,3.07,3,3,1.71-.08,2.9-1.32,3-3h0Z"/><path class="cls-1" d="m177.26,324.57c3.86,0,3.87-6,0-6s-3.87,6,0,6h0Z"/><path class="cls-1" d="m177.26,324.38c3.86,0,3.87-6,0-6s-3.87,6,0,6h0Z"/><path class="cls-1" d="m177.2,328.09c3.86,0,3.87-6,0-6s-3.87,6,0,6h0Z"/><path class="cls-1" d="m177.2,329.82c3.86,0,3.87-6,0-6s-3.87,6,0,6h0Z"/><path class="cls-1" d="m177.75,328.47c-.82.32-1.68.65-2.29,1.33s-.91,1.5-1.17,2.35h2.17c-.11-.43-.2-.87-.26-1.31l.04.3c-.11-.86-.13-1.73-.04-2.59.03-.27-.15-.61-.33-.8-.2-.2-.52-.34-.8-.33s-.59.11-.8.33c-.21.23-.3.48-.33.8-.14,1.4-.01,2.83.35,4.2.12.46.6.85,1.08.83s.93-.34,1.08-.83c.05-.16.1-.32.16-.48.03-.08.06-.16.09-.24.01-.04.03-.08.05-.12.04-.11.03-.08-.04.09.08-.12.12-.27.2-.39.04-.07.09-.14.13-.21.07-.09.05-.07-.06.08.03-.03.05-.06.08-.09.06-.06.11-.12.18-.18.03-.03.06-.06.1-.08-.15.11-.17.13-.08.06.12-.08.25-.16.38-.23.15-.08.31-.14.46-.22-.32.16-.05.02.03,0s.16-.06.24-.09c.28-.11.52-.25.67-.52.14-.24.2-.6.11-.87-.17-.53-.8-1.01-1.38-.79h0Z"/><path class="cls-1" d="m178.53,375.66c.32-.34.67-.67,1.02-.99.17-.15.33-.3.49-.46.08-.08.15-.16.22-.24.04-.04.07-.08.11-.12.02-.02.03-.03.05-.04-.06.05.02,0,.03-.01.17-.09.24-.35.13-.51-.11-.18-.33-.23-.51-.13-.21.11-.35.32-.51.49s-.34.33-.51.49c-.36.33-.71.66-1.04,1.01-.13.14-.15.39,0,.53s.39.15.53,0h0Z"/><path class="cls-1" d="m275.68,349.11l7.99,8.66c.53.58,1.59.58,2.12,0,.57-.62.57-1.5,0-2.12l-7.99-8.66c-.53-.58-1.59-.58-2.12,0-.57.62-.57,1.5,0,2.12h0Z"/><path class="cls-1" d="m258.9,339.09c9.16,7.17,18.12,14.6,26.86,22.29,1.77,1.55,4.65,1.87,6.36,0,1.56-1.7,1.89-4.7,0-6.36-8.74-7.68-17.7-15.11-26.86-22.29-1.85-1.45-4.58-1.94-6.36,0-1.48,1.62-1.98,4.81,0,6.36h0Z"/><path class="cls-1" d="m300.55,370.84c1.39-3.87.72-8.58-1.69-11.91-.73-1-1.5-1.88-2.45-2.67s-1.7-1.33-2.36-1.84c-1.71-1.33-3.42-2.68-5.12-4.03-6.79-5.42-13.43-11.03-19.92-16.81-1.76-1.56-4.65-1.86-6.36,0-1.57,1.71-1.88,4.69,0,6.36,6.01,5.35,12.15,10.55,18.41,15.6,1.5,1.21,3.01,2.41,4.53,3.61.82.65,1.65,1.29,2.47,1.93.22.17,1.76,1.36,1.39,1.08-.21-.16-.12-.09.25.2.23.18.45.36.67.55.33.29.62.61.94.9.64.59-.26-.56.19.27.18.33.36.64.53.98-.45-.89,0,.12.06.32.12.42.2,1.06.12.26.04.37.06.74.05,1.11,0,.25-.02.49-.04.74.08-.52.08-.62.02-.28-.14.4-.22.84-.37,1.24-.79,2.22.9,5.02,3.14,5.54,2.53.58,4.68-.77,5.54-3.14h0Z"/><path class="cls-1" d="m264.96,341.32c.71.47,1.44.93,2.12,1.45l-.91-.7c.95.77,1.74,1.7,2.62,2.54.93.89,1.97,1.65,2.94,2.49,1.91,1.64,3.69,3.43,5.34,5.34.72.83,2.11,1.32,3.18,1.32s2.42-.49,3.18-1.32,1.37-1.98,1.32-3.18-.5-2.24-1.32-3.18c-1.96-2.27-4.11-4.36-6.43-6.25-1.14-.93-2.17-1.92-3.21-2.96-1.28-1.3-2.78-2.3-4.29-3.3-1.97-1.3-5.06-.45-6.16,1.61-1.19,2.26-.49,4.77,1.61,6.16h0Z"/><path class="cls-1" d="m280.19,349.33h-.23c.4.06.8.12,1.2.17.44.12.76.54,1.16.66-.19-.06-.42-.4-.56-.53-.3-.28-.6-.56-.9-.84-.64-.6-1.27-1.2-1.91-1.79-1.31-1.23-2.62-2.46-3.92-3.69-2.54-2.39-5.09-4.78-7.48-7.32-1.61-1.72-4.76-1.75-6.36,0-1.69,1.84-1.72,4.53,0,6.36,2.6,2.77,5.39,5.35,8.15,7.96,1.38,1.3,2.77,2.6,4.15,3.9,1.89,1.78,3.86,4.24,6.71,4.13,2.35-.09,4.61-2,4.5-4.5-.11-2.36-1.98-4.6-4.5-4.5h0Z"/><path class="cls-1" d="m278.39,357.94c.78.59,1.56,1.19,2.33,1.79l-.91-.7c3.94,3.05,7.81,6.21,11.58,9.47.92.79,1.94,1.32,3.18,1.32,1.1,0,2.42-.49,3.18-1.32,1.55-1.69,1.9-4.72,0-6.36-4.81-4.15-9.76-8.12-14.83-11.96-.87-.66-2.47-.73-3.47-.45-1.04.29-2.18,1.09-2.69,2.07-.55,1.04-.83,2.31-.45,3.47s1.08,1.94,2.07,2.69h0Z"/><path class="cls-1" d="m299,366.03c-2.67-2.87-5.34-5.74-8.01-8.61-1.22-1.31-2.48-2.57-3.89-3.68-1.71-1.35-3.53-2.52-5.32-3.76-1.94-1.34-5.08-.42-6.16,1.61-1.21,2.29-.46,4.73,1.61,6.16.74.51,1.48,1,2.23,1.5.37.25.74.5,1.11.76.16.11.32.23.48.35.12.09.24.18.36.27l-.44-.34c.57.65,1.38,1.17,2,1.78s1.25,1.28,1.86,1.93c2.61,2.79,5.21,5.59,7.81,8.39,1.61,1.73,4.76,1.75,6.36,0,1.7-1.85,1.72-4.52,0-6.36h0Z"/><path class="cls-1" d="m276.3,356.81c4.25,3.53,8.49,7.05,12.74,10.58.94.78,1.92,1.32,3.18,1.32,1.1,0,2.42-.49,3.18-1.32s1.37-1.98,1.32-3.18c-.05-1.13-.41-2.43-1.32-3.18-4.25-3.53-8.49-7.05-12.74-10.58-.94-.78-1.92-1.32-3.18-1.32-1.1,0-2.42.49-3.18,1.32s-1.37,1.98-1.32,3.18c.05,1.13.41,2.43,1.32,3.18h0Z"/><path class="cls-1" d="m254.2,360.36c1.7,2.08,3.7,3.87,5.76,5.58,2.2,1.84,4.43,3.64,6.67,5.43.97.77,1.89,1.32,3.18,1.32,1.1,0,2.42-.49,3.18-1.32s1.37-1.98,1.32-3.18c-.05-1.12-.41-2.45-1.32-3.18-2.24-1.79-4.47-3.6-6.67-5.43-2.06-1.72-4.06-3.5-5.76-5.58-.69-.84-2.14-1.32-3.18-1.32-1.1,0-2.42.49-3.18,1.32s-1.37,1.98-1.32,3.18c.06,1.26.52,2.21,1.32,3.18h0Z"/><path class="cls-1" d="m185.4,414.13c-.34-.28-.68-.57-.95-.92l.7.91c-.15-.2-.27-.41-.37-.64l.45,1.07c-.11-.29-.18-.58-.22-.88l.16,1.2c-.08-.64-.04-1.3.04-1.94l-.16,1.2c.05-.38.12-.75.22-1.12.29-1.15.15-2.44-.45-3.47-.28-.52-.67-.95-1.16-1.26-.43-.4-.94-.67-1.53-.81-1.15-.26-2.44-.21-3.47.45s-1.78,1.54-2.07,2.69c-.23.91-.35,1.85-.43,2.77s.03,1.79.18,2.72c.04.24.09.48.17.71.16.45.36.89.56,1.33.06.12.13.25.2.36.51.76,1.07,1.4,1.77,1.98.41.44.89.75,1.45.93.54.28,1.11.41,1.73.39.62.02,1.2-.11,1.73-.39.56-.18,1.04-.49,1.45-.93.79-.86,1.37-1.98,1.32-3.18-.05-1.13-.41-2.43-1.32-3.18h0Z"/><path class="cls-1" d="m175.04,415.92c.64,1.8,1.61,3.3,3.13,4.47.38.29.72.57,1.15.77.95.45,1.69.64,2.74.75.67.07,1.34.04,2.02.04,1.34,0,2.67,0,4.01-.01.65,0,1.3.02,1.95,0,1.25-.04,2.5-.51,3.38-1.42.54-.55.92-1.26,1.16-1.99.28-.85.12-1.63-.01-2.47-.16-1.04-1.2-2.18-2.07-2.69-.96-.56-2.39-.8-3.47-.45s-2.14,1.03-2.69,2.07l-.45,1.07c-.21.8-.21,1.6,0,2.39v.08c.4-1.46.78-2.92,1.17-4.38l-.08.07,1.99-1.16-.12.03,1.2-.16c-1.34,0-2.67,0-4.01.01s-2.68.13-3.97-.04l1.2.16c-.13-.02-.26-.06-.38-.1l1.07.45c-.29-.12-.54-.28-.79-.46l.91.7c-.31-.25-.57-.51-.82-.82l.7.91c-.23-.32-.43-.64-.59-1l.45,1.07c-.04-.1-.08-.21-.12-.31-.4-1.12-1.02-2.07-2.07-2.69-.96-.56-2.39-.8-3.47-.45s-2.14,1.03-2.69,2.07-.86,2.33-.45,3.47h0Z"/><line class="cls-7" x1="181.23" y1="419.93" x2="280.51" y2="419.38"/><line class="cls-7" x1="176.85" y1="378.42" x2="176.97" y2="415.21"/><line class="cls-5" x1="175.05" y1="388.85" x2="175.27" y2="405.05"/><line class="cls-6" x1="282.6" y1="375.34" x2="283.3" y2="417.47"/><line class="cls-6" x1="231.59" y1="328.08" x2="283.16" y2="375.48"/><path class="cls-1" d="m272.4,370.57c.35.23.7.47,1.04.71.16.12.32.24.48.36-.17-.13-.03-.02.06.05.07.05.14.11.21.17.65.53,1.28,1.09,1.89,1.66,1.21,1.14,2.35,2.35,3.49,3.56.54.57,1.58.58,2.12,0,.56-.61.57-1.51,0-2.12-2.39-2.54-4.82-5.07-7.77-6.98-.66-.43-1.69-.16-2.05.54-.39.75-.17,1.6.54,2.05h0Z"/><line class="cls-8" x1="283.36" y1="374.76" x2="284.61" y2="416.47"/><path class="cls-1" d="m279.32,418.45c1.93,0,1.93-3,0-3s-1.93,3,0,3h0Z"/><path class="cls-1" d="m281.85,419.34c1.93,0,1.93-3,0-3s-1.93,3,0,3h0Z"/><path class="cls-1" d="m282.77,419.06c2.99-1.6,2.8-5.17,2.58-8.07-.25-3.37-.59-6.74-1.01-10.09-.1-.8-.62-1.5-1.5-1.5-.73,0-1.6.69-1.5,1.5.36,2.92.67,5.84.9,8.77.11,1.4.29,2.82.25,4.23-.03,1.02-.28,2.07-1.24,2.58-1.7.91-.19,3.5,1.51,2.59h0Z"/><path class="cls-1" d="m280.28,421.44c1.81-.43,3.37-1.95,4.22-3.55s1.16-3.5.83-5.34c-.14-.77-1.12-1.28-1.85-1.05-.83.27-1.2,1.02-1.05,1.85,0,.03.05.36.02.11s0,.05,0,.11c.01.17.02.34.02.51,0,.15,0,.31-.02.46,0,.03,0,.24-.02.26.04-.03.06-.36,0-.04s-.14.64-.24.95c-.03.08-.06.16-.09.24-.08.22.01.11.02-.02,0,.13-.16.35-.22.46-.15.29-.33.56-.52.82-.11.16.24-.27.01-.02-.06.06-.11.13-.17.19-.1.11-.21.22-.32.33-.1.09-.26.3-.39.34.13-.04.2-.15.02-.02-.07.05-.14.1-.21.14-.15.1-.32.17-.47.27-.14.09.24-.06-.03.01-.12.03-.23.07-.35.1-.76.18-1.29,1.09-1.05,1.85.26.8,1.03,1.24,1.85,1.05h0Z"/><text class="cls-9" transform="translate(194.8 412.2)"><tspan x="0" y="0">s</tspan></text><text class="cls-9" transform="translate(261.35 412.43)"><tspan x="0" y="0">tudy</tspan></text><path class="cls-3" d="m180.42,430.83c1.93,0,1.93-3,0-3s-1.93,3,0,3h0Z"/></svg>